<?xml version="1.0" encoding="UTF-8" standalone="no" ?>
<!DOCTYPE svg PUBLIC "-//W3C//DTD SVG 1.1//EN" "http://www.w3.org/Graphics/SVG/1.1/DTD/svg11.dtd">
<svg xmlns="http://www.w3.org/2000/svg" xmlns:xlink="http://www.w3.org/1999/xlink" version="1.1" width="1280" height="1024" viewBox="0 0 1280 1024" xml:space="preserve">
<desc>Created with Fabric.js 5.3.0</desc>
<defs>
</defs>
<g transform="matrix(1 0 0 1 640 512)" id="background-logo"  >
<rect style="stroke: none; stroke-width: 0; stroke-dasharray: none; stroke-linecap: butt; stroke-dashoffset: 0; stroke-linejoin: miter; stroke-miterlimit: 4; fill: rgb(255,255,255); fill-opacity: 0; fill-rule: nonzero; opacity: 1;"  paint-order="stroke"  x="-640" y="-512" rx="0" ry="0" width="1280" height="1024" />
</g>
<g transform="matrix(1.9211538461538462 0 0 1.9211538461538462 640 408.36777716064523)" id="logo-logo"  >
<g style=""  paint-order="stroke"   >
		<g transform="matrix(1.3400566563232996 0 0 1.340056656323299 0 0)"  >
<g style=""  paint-order="stroke"   >
		<g transform="matrix(1 0 0 1 0 0)"  >
<path style="stroke: none; stroke-width: 1; stroke-dasharray: none; stroke-linecap: butt; stroke-dashoffset: 0; stroke-linejoin: miter; stroke-miterlimit: 4; fill: rgb(170,107,107); fill-rule: nonzero; opacity: 1;"  paint-order="stroke"  transform=" translate(-81.32, -81.32000000000001)" d="M 68.16 156.05 L 68.16 156.05 C 68.38431098676759 156.08833779512204 68.5830429018358 156.21709231887925 68.70970843273291 156.40614535006895 C 68.83637396363002 156.59519838125868 68.87986206042108 156.82796626326157 68.83 157.05 L 68.17 160.8 C 68.13166220487797 161.0243109867676 68.00290768112076 161.2230429018358 67.81385464993105 161.3497084327329 C 67.62480161874133 161.47637396363 67.39203373673843 161.51986206042108 67.17 161.47 L 67.17 161.47 C 66.94568901323241 161.43166220487797 66.7469570981642 161.30290768112076 66.62029156726709 161.11385464993106 C 66.49362603636997 160.92480161874133 66.45013793957892 160.69203373673844 66.5 160.47 L 67.16 156.72 C 67.19833779512203 156.4956890132324 67.32709231887924 156.2969570981642 67.51614535006895 156.1702915672671 C 67.70519838125867 156.04362603637 67.93796626326157 156.00013793957893 68.16 156.05 Z M 71.05 134.89000000000001 L 68.88 147.16000000000003 C 68.83326782239915 147.38322899852835 68.87931359593325 147.61586454987952 69.0075586036756 147.8044601495006 C 69.13580361141796 147.9930557491217 69.33522247218495 148.1213976011545 69.56 148.16000000000003 L 69.56 148.16000000000003 C 69.78322899852833 148.20673217760086 70.0158645498795 148.16068640406675 70.20446014950059 148.0324413963244 C 70.39305574912169 147.90419638858208 70.52139760115449 147.70477752781508 70.56 147.48000000000002 L 72.72 135.21 C 72.76986206042108 134.98796626326157 72.72637396363002 134.75519838125868 72.59970843273291 134.56614535006895 C 72.4730429018358 134.37709231887925 72.27431098676759 134.24833779512204 72.05 134.21 L 72.05 134.21 C 71.82648724483683 134.16026646230347 71.59235800613216 134.20507989937687 71.40300921335597 134.33383707846465 C 71.2136604205798 134.46259425755247 71.08591551279297 134.66385524009328 71.05 134.89 Z M 95.47 5.94 L 96.13 2.2 C 96.17986206042107 1.9779662632615667 96.13637396363002 1.7451983812586662 96.00970843273291 1.5561453500689502 C 95.8830429018358 1.367092318879234 95.68431098676758 1.238337795122034 95.46 1.2000000000000002 L 95.46 1.2000000000000002 C 95.23823387020958 1.153091359901663 95.00692269256325 1.1977997618476248 94.81860959150359 1.323969539557601 C 94.63029649044392 1.4501393172675772 94.50096744868225 1.6470598623249755 94.46 1.8700000000000006 L 93.8 5.62 C 93.75026646230346 5.8435127551631725 93.79507989937686 6.07764199386785 93.92383707846467 6.26699078664403 C 94.05259425755247 6.456339579420209 94.25385524009329 6.58408448720704 94.48 6.62 L 94.48 6.62 C 94.70204812065809 6.666638344386738 94.93350918516964 6.6203413557759045 95.12053375939742 6.491880032063891 C 95.30755833362521 6.363418708351878 95.43384024597408 6.163993248210101 95.47 5.94 Z M 91.62 27.78 L 93.79 15.510000000000002 C 93.83673217760085 15.286771001471676 93.79068640406675 15.054135450120508 93.6624413963244 14.865539850499413 C 93.53419638858205 14.676944250878316 93.33477752781505 14.548602398845514 93.11 14.510000000000002 L 93.11 14.510000000000002 C 92.88648724483683 14.460266462303462 92.65235800613215 14.505079899376865 92.46300921335597 14.633837078464667 C 92.27366042057979 14.762594257552468 92.14591551279297 14.963855240093292 92.11 15.190000000000001 L 90 27.49 C 89.95326782239916 27.713228998528322 89.99931359593326 27.94586454987949 90.12755860367561 28.134460149500587 C 90.25580361141796 28.323055749121686 90.45522247218496 28.451397601154486 90.68 28.49 L 90.68 28.49 C 90.89893421176937 28.521320359224045 91.12131454915627 28.463968181670666 91.29779349187626 28.330670256850247 C 91.47427243459624 28.19737233202983 91.59025357218836 27.999153608269275 91.62 27.78 Z M 54.32 153.12 L 53 156.7 C 52.92327505669417 156.90674438893407 52.933055874297374 157.13567807124912 53.027134684477645 157.33512514883128 C 53.121213494657916 157.53457222641347 53.29165989899382 157.6877202546093 53.5 157.76 L 53.5 157.76 C 53.70545080875622 157.83719616210544 53.933272982128024 157.82881008660343 54.1324923384841 157.736718119986 C 54.33171169484018 157.64462615336856 54.4856988954015 157.47651544280714 54.56 157.26999999999998 L 55.86 153.68999999999997 C 55.937196162105444 153.48454919124376 55.92881008660344 153.25672701787195 55.83671811998601 153.05750766151587 C 55.74462615336858 152.8582883051598 55.57651544280716 152.70430110459847 55.37 152.62999999999997 L 55.37 152.62999999999997 C 54.945034298381216 152.48158591899843 54.47922265136707 152.69896468760504 54.32 153.12 Z M 61.9 132.29000000000002 L 57.64 144 C 57.48547391775326 144.43341152031377 57.70840223834085 144.9104781263712 58.14 145.07 L 58.14 145.07 C 58.57074556554756 145.22388588577917 59.04480177115869 145.00027446803807 59.2 144.57 L 63.47 132.85999999999999 C 63.62452608224674 132.42658847968622 63.40159776165915 131.94952187362878 62.97 131.79 L 62.97 131.79 C 62.76188088008511 131.71297574685258 62.53158430976701 131.72250088100918 62.33053663257701 131.8164483937148 C 62.129488955387004 131.9103959064204 61.97443533553954 132.08094095458415 61.9 132.29 Z M 108.35 9.54 L 109.65 6 C 109.72672494330583 5.793255611065928 109.71694412570263 5.564321928750875 109.62286531552236 5.364874851168701 C 109.52878650534208 5.1654277735865275 109.35834010100618 5.012279745390675 109.15 4.9399999999999995 L 109.15 4.9399999999999995 C 108.94454919124378 4.862803837894552 108.71672701787197 4.87118991339656 108.5175076615159 4.963281880013991 C 108.31828830515983 5.055373846631422 108.16430110459851 5.223484557192841 108.09 5.430000000000001 L 106.79 9 C 106.71280383789455 9.205450808756218 106.72118991339657 9.433272982128022 106.813281880014 9.632492338484097 C 106.90537384663142 9.831711694840171 107.07348455719284 9.985698895401494 107.28 10.06 L 107.28 10.06 C 107.4907205621099 10.136117295002702 107.72326350034837 10.123812297472682 107.92477433251466 10.025881799597471 C 108.12628516468095 9.927951301722262 108.27964614874153 9.75271420617237 108.35 9.54 Z M 100.75999999999999 30.38 L 105 18.67 C 105.14880122258975 18.236876194231826 104.92770427003191 17.763728715758056 104.5 17.6 L 104.5 17.6 C 104.06687619423182 17.45119877741026 103.59372871575806 17.672295729968095 103.43 18.1 L 99.2 29.81 C 99.04547391775326 30.243411520313774 99.26840223834085 30.720478126371223 99.7 30.88 L 99.7 30.88 C 99.90674438893407 30.956724943305826 100.13567807124913 30.946944125702625 100.33512514883131 30.852865315522354 C 100.53457222641347 30.758786505342083 100.68772025460933 30.588340101006178 100.76 30.38 Z M 42.25999999999999 147.38 L 40.35999999999999 150.68 C 40.134418878106686 151.0777521117941 40.273036184810955 151.58303455236126 40.669999999999995 151.81 L 40.669999999999995 151.81 C 41.065140980409204 152.03726274531095 41.569618341995124 151.90333070241203 41.8 151.51 L 43.699999999999996 148.20999999999998 C 43.81190246927449 148.02080232432402 43.84315858174298 147.7945983536311 43.786754957309725 147.58214470159916 C 43.73035133287647 147.36969104956722 43.59101109436696 147.18877814550564 43.4 147.07999999999998 L 43.4 147.07999999999998 C 43.01308407243879 146.83886713073377 42.50410244137974 146.95495066062443 42.26 147.34 Z M 53.349999999999994 128.18 L 47.11999999999999 138.97 C 46.891811101475376 139.36815127984602 47.02538804902845 139.87574368054769 47.41999999999999 140.10999999999999 L 47.41999999999999 140.10999999999999 C 47.820750005803326 140.33648195015843 48.32913004971531 140.19823825400692 48.55999999999999 139.79999999999998 L 54.79 129 C 55.01818889852463 128.60184872015398 54.884611950971546 128.09425631945228 54.49 127.86 L 54.49 127.86 C 54.09701490592238 127.62826938080275 53.590911879239535 127.75257538735643 53.35 128.14 Z M 120.4 15.33 L 122.31 12.030000000000001 C 122.53558112189332 11.63224788820592 122.39696381518904 11.126965447638744 122 10.9 L 122 10.9 C 121.80927192163402 10.787644542891224 121.58156450572378 10.756132126513979 121.36749135922777 10.812467165065556 C 121.15341821273178 10.868802203617134 120.97071786911995 11.008316661973872 120.86 11.200000000000001 L 119 14.49 C 118.77351804984156 14.890750005803335 118.91176174599306 15.399130049715327 119.31 15.63 L 119.31 15.63 C 119.69580347099986 15.831150834255556 120.17145908309068 15.70023644560671 120.4 15.33 Z M 109.32000000000001 34.53 L 115.55000000000001 23.73 C 115.77558112189332 23.33224788820592 115.63696381518905 22.826965447638745 115.24000000000001 22.6 L 115.24000000000001 22.6 C 114.8448590195908 22.372737254689056 114.34038165800489 22.506669297587976 114.11000000000001 22.900000000000002 L 107.88000000000001 33.7 C 107.76809753072551 33.889197675675966 107.73684141825701 34.11540164636887 107.79324504269027 34.32785529840082 C 107.84964866712353 34.54030895043276 107.98898890563304 34.72122185449434 108.18 34.830000000000005 L 108.18 34.830000000000005 C 108.37072807836599 34.942355457108775 108.59843549427623 34.97386787348602 108.81250864077222 34.91753283493444 C 109.02658178726821 34.86119779638286 109.20928213088004 34.721683338026125 109.32 34.53 Z M 31.400000000000006 139.53 L 29 142.47 C 28.709928007044095 142.82239846839576 28.754333111297132 143.34193818815626 29.1 143.64 L 29.1 143.64 C 29.268376426282522 143.78197541695477 29.486277947742913 143.85120767438838 29.70572237100651 143.83245174077612 C 29.9251667942701 143.81369580716384 30.128159055690848 143.70848972213355 30.270000000000003 143.54 L 32.720000000000006 140.62 C 33.01007199295591 140.26760153160424 32.96566688870288 139.74806181184374 32.620000000000005 139.45000000000002 L 32.620000000000005 139.45000000000002 C 32.44797440300019 139.29464243472952 32.219397845982705 139.2172746025364 31.988377923097485 139.2362106617893 C 31.757358000212268 139.2551467210422 31.54443099084258 139.36870337015228 31.4 139.55 Z M 45.650000000000006 122.53 L 37.650000000000006 132.08 C 37.50802458304522 132.24837642628253 37.438792325611615 132.46627794774292 37.457548259223884 132.6857223710065 C 37.47630419283616 132.90516679427012 37.58151027786645 133.10815905569083 37.75000000000001 133.25 L 37.75000000000001 133.25 C 38.10239846839577 133.54007199295592 38.62193818815628 133.49566688870289 38.92000000000001 133.15 L 46.92000000000001 123.60000000000001 C 47.061975416954795 123.43162357371749 47.131207674388406 123.2137220522571 47.11245174077614 122.9942776289935 C 47.09369580716386 122.7748332057299 46.98848972213357 122.57184094430916 46.82000000000001 122.43 L 46.82000000000001 122.43 C 46.64660804372468 122.29257606031767 46.42552531078549 122.2300668838256 46.2058456979921 122.25635333321968 C 45.98616608519872 122.28263978261376 45.78607323295813 122.39554603767434 45.65 122.57 Z M 131.27 23.070000000000007 L 133.72 20.160000000000007 C 133.86081191823516 19.99036436647192 133.9283493333675 19.77167658351693 133.90771298055623 19.55218083088788 C 133.88707662774493 19.332685078258837 133.77996221776365 19.13041755236581 133.60999999999999 18.99000000000001 L 133.60999999999999 18.99000000000001 C 133.44162357371746 18.848024583045223 133.22372205225707 18.778792325611615 133.0042776289935 18.79754825922389 C 132.78483320572988 18.816304192836164 132.58184094430916 18.92151027786645 132.44 19.09000000000001 L 130 22 C 129.70325240352744 22.353934004420033 129.7479233439769 22.88105110172366 130.1 23.18 L 130.1 23.18 C 130.44265123858187 23.483077145065046 130.96592935429902 23.451769907372565 131.27 23.11 Z M 117 40.1 L 125 30.55 C 125.14197541695479 30.381623573717484 125.2112076743884 30.16372205225709 125.19245174077612 29.944277628993497 C 125.17369580716385 29.724833205729905 125.06848972213356 29.52184094430916 124.9 29.380000000000003 L 124.9 29.380000000000003 C 124.73162357371748 29.238024583045213 124.5137220522571 29.1687923256116 124.2942776289935 29.187548259223878 C 124.0748332057299 29.20630419283615 123.87184094430916 29.31151027786644 123.73 29.480000000000004 L 115.73 39.03 C 115.58802458304521 39.19837642628252 115.5187923256116 39.41627794774291 115.53754825922387 39.63572237100651 C 115.55630419283615 39.855166794270104 115.66151027786644 40.058159055690844 115.83 40.2 L 115.83 40.2 C 115.99837642628252 40.34197541695479 116.21627794774291 40.4112076743884 116.4357223710065 40.39245174077613 C 116.6551667942701 40.373695807163855 116.85815905569085 40.268489722133566 117 40.1 Z M 22 130 L 19.09 132.44 C 18.92151027786644 132.58184094430916 18.816304192836153 132.78483320572988 18.79754825922388 133.0042776289935 C 18.778792325611604 133.22372205225707 18.848024583045213 133.44162357371746 18.99 133.60999999999999 L 18.99 133.60999999999999 C 19.1304175523658 133.77996221776365 19.332685078258827 133.88707662774493 19.55218083088787 133.90771298055623 C 19.771676583516918 133.9283493333675 19.99036436647191 133.86081191823516 20.159999999999997 133.72 L 23.069999999999997 131.27 C 23.239962217763647 131.12958244763422 23.347076627744936 130.92731492174119 23.367712980556213 130.70781916911213 C 23.38834933336749 130.4883234164831 23.32081191823516 130.2696356335281 23.179999999999996 130.10000000000002 L 23.179999999999996 130.10000000000002 C 22.881051101723664 129.74792334397694 22.35393400442004 129.70325240352747 22 130 Z M 39 115.75 L 29.45 123.75 C 29.281510277866435 123.89184094430915 29.176304192836145 124.0948332057299 29.157548259223873 124.3142776289935 C 29.138792325611597 124.53372205225709 29.20802458304521 124.75162357371748 29.349999999999998 124.92 L 29.349999999999998 124.92 C 29.491840944309153 125.08848972213356 29.6948332057299 125.19369580716385 29.914277628993492 125.21245174077612 C 30.133722052257085 125.2312076743884 30.35162357371748 125.16197541695479 30.519999999999996 125.02 L 40.06999999999999 117.02 C 40.23848972213356 116.87815905569084 40.34369580716385 116.6751667942701 40.36245174077612 116.4557223710065 C 40.38120767438839 116.2362779477429 40.31197541695478 116.01837642628252 40.169999999999995 115.85 L 40.169999999999995 115.85 C 40.028159055690836 115.68151027786644 39.825166794270096 115.57630419283615 39.6057223710065 115.55754825922388 C 39.38627794774291 115.5387923256116 39.16837642628252 115.60802458304521 39 115.75 Z M 140.62 32.67 L 143.54 30.220000000000002 C 143.70848972213355 30.078159055690847 143.81369580716384 29.8751667942701 143.83245174077612 29.655722371006508 C 143.85120767438838 29.436277947742916 143.78197541695477 29.218376426282525 143.64 29.050000000000004 L 143.64 29.050000000000004 C 143.34193818815626 28.704333111297135 142.82239846839576 28.659928007044098 142.47 28.950000000000003 L 139.55 31.400000000000002 C 139.20433311129713 31.698061811843736 139.1599280070441 32.21760153160424 139.45000000000002 32.57 L 139.45000000000002 32.57 C 139.74806181184374 32.91566688870287 140.26760153160424 32.9600719929559 140.62 32.67 Z M 123.62 46.92 L 133.17000000000002 38.92 C 133.5156668887029 38.62193818815627 133.56007199295593 38.10239846839576 133.27 37.75 L 133.27 37.75 C 133.12815905569084 37.58151027786644 132.92516679427013 37.47630419283615 132.70572237100652 37.45754825922388 C 132.48627794774293 37.43879232561161 132.26837642628254 37.50802458304521 132.10000000000002 37.65 L 122.55000000000003 45.65 C 122.38151027786647 45.79184094430916 122.27630419283618 45.994833205729904 122.2575482592239 46.21427762899349 C 122.23879232561163 46.43372205225709 122.30802458304524 46.65162357371748 122.45000000000003 46.82 L 122.45000000000003 46.82 C 122.5922938256856 46.9945190186554 122.79938840150778 47.103734058838704 123.02377395064391 47.12258998733754 C 123.24815949978006 47.14144591583638 123.47057648500352 47.0683242841443 123.64 46.92 Z M 14.49 119 L 11.2 120.9 C 11.00831666197387 121.01071786911996 10.868802203617133 121.19341821273179 10.812467165065554 121.40749135922779 C 10.756132126513977 121.62156450572378 10.787644542891222 121.84927192163403 10.899999999999999 122.04 L 10.899999999999999 122.04 C 11.126965447638742 122.43696381518905 11.632247888205917 122.57558112189332 12.029999999999998 122.35000000000001 L 15.329999999999998 120.44000000000001 C 15.723330702412024 120.20961834199514 15.857262745310942 119.70514098040923 15.629999999999999 119.31000000000002 L 15.629999999999999 119.31000000000002 C 15.399130049715328 118.91176174599308 14.890750005803339 118.77351804984156 14.49 119 Z M 33.7 107.88 L 22.900000000000002 114.11 C 22.506669297587976 114.34038165800487 22.372737254689056 114.84485901959079 22.6 115.24 L 22.6 115.24 C 22.826965447638745 115.63696381518903 23.33224788820592 115.77558112189331 23.73 115.55 L 34.53 109.32 C 34.72168333802613 109.20928213088004 34.86119779638287 109.02658178726821 34.91753283493444 108.81250864077221 C 34.97386787348602 108.59843549427622 34.942355457108775 108.37072807836597 34.83 108.17999999999999 L 34.83 108.17999999999999 C 34.72122185449433 107.98898890563304 34.54030895043275 107.84964866712353 34.32785529840081 107.79324504269027 C 34.11540164636887 107.73684141825701 33.889197675675966 107.7680975307255 33.7 107.88 Z M 148.17 43.7 L 151.47 41.800000000000004 C 151.86333070241204 41.56961834199513 151.99726274531096 41.06514098040921 151.77 40.67 L 151.77 40.67 C 151.54303455236126 40.27303618481096 151.0377521117941 40.13441887810669 150.64000000000001 40.36 L 147.34 42.26 C 147.14831666197387 42.37071786911996 147.00880220361714 42.55341821273178 146.95246716506554 42.767491359227776 C 146.89613212651398 42.98156450572377 146.92764454289122 43.20927192163401 147.04 43.4 L 147.04 43.4 C 147.14877814550564 43.59101109436696 147.32969104956723 43.73035133287647 147.54214470159917 43.786754957309725 C 147.7545983536311 43.84315858174298 147.98080232432403 43.81190246927449 148.17 43.7 Z M 129 54.79 L 139.79 48.56 C 140.18823825400693 48.329130049715324 140.32648195015844 47.82075000580334 140.1 47.42 L 140.1 47.42 C 139.8657436805477 47.025388049028464 139.35815127984603 46.89181110147539 138.96 47.120000000000005 L 128.17000000000002 53.35000000000001 C 127.77176174599308 53.580869950284686 127.63351804984157 54.08924999419668 127.86000000000001 54.49000000000001 L 127.86000000000001 54.49000000000001 C 128.0942563194523 54.884611950971546 128.60184872015398 55.01818889852461 129 54.79 Z M 9 106.78999999999999 L 5.42 108.08999999999999 C 5.213484557192841 108.1643011045985 5.0453738466314215 108.31828830515981 4.953281880013991 108.51750766151589 C 4.861189913396561 108.71672701787196 4.852803837894553 108.94454919124377 4.93 109.14999999999999 L 4.93 109.14999999999999 C 5.002279745390675 109.35834010100616 5.155427773586528 109.52878650534207 5.354874851168701 109.62286531552235 C 5.554321928750875 109.71694412570261 5.783255611065928 109.72672494330581 5.99 109.64999999999999 L 9.56 108.35 C 9.76905904541584 108.27556466446046 9.939604093579582 108.12051104461298 10.033551606285192 107.91946336742299 C 10.127499118990801 107.71841569023299 10.137024253147414 107.4881191199149 10.06 107.28 L 10.06 107.28 C 9.985698895401494 107.07348455719284 9.831711694840171 106.90537384663142 9.632492338484097 106.813281880014 C 9.433272982128022 106.72118991339657 9.205450808756218 106.71280383789455 9 106.79 Z M 29.81 99.2 L 18.1 103.46 C 17.672295729968095 103.62372871575805 17.45119877741026 104.09687619423181 17.6 104.52999999999999 L 17.6 104.52999999999999 C 17.763728715758056 104.9577042700319 18.236876194231826 105.17880122258974 18.67 105.02999999999999 L 30.380000000000003 100.75999999999999 C 30.58834010100618 100.68772025460932 30.758786505342087 100.53457222641346 30.852865315522358 100.3351251488313 C 30.94694412570263 100.13567807124912 30.95672494330583 99.90674438893406 30.880000000000003 99.69999999999999 L 30.880000000000003 99.69999999999999 C 30.72047812637122 99.26840223834084 30.24341152031377 99.04547391775326 29.81 99.2 Z M 153.69 55.88 L 157.27 54.580000000000005 C 157.47651544280717 54.5056988954015 157.6446261533686 54.35171169484018 157.73671811998602 54.1524923384841 C 157.82881008660345 53.95327298212803 157.83719616210547 53.72545080875622 157.76000000000002 53.52 L 157.76000000000002 53.52 C 157.68772025460933 53.311659898993824 157.5345722264135 53.14121349465792 157.3351251488313 53.04713468447765 C 157.13567807124915 52.95305587429738 156.9067443889341 52.943275056694176 156.70000000000002 53.02 L 153.12 54.32 C 152.91276465087876 54.3964333076648 152.74454303181815 54.55231746740298 152.65257643703103 54.75314248050954 C 152.5606098422439 54.9539674936161 152.55248478161184 55.18316689973744 152.63 55.39 L 152.63 55.39 C 152.7043011045985 55.59651544280716 152.85828830515982 55.76462615336858 153.0575076615159 55.85671811998601 C 153.25672701787198 55.948810086603444 153.4845491912438 55.95719616210545 153.69 55.88 Z M 132.86 63.47 L 144.57000000000002 59.2 C 145.0002744680381 59.04480177115869 145.2238858857792 58.57074556554756 145.07000000000002 58.14 L 145.07000000000002 58.14 C 144.91047812637123 57.70840223834085 144.4334115203138 57.48547391775326 144.00000000000003 57.64 L 132.29 61.9 C 132.08094095458415 61.97443533553954 131.9103959064204 62.129488955387004 131.8164483937148 62.33053663257701 C 131.72250088100918 62.53158430976701 131.71297574685258 62.7618808800851 131.79 62.97 L 131.79 62.97 C 131.94952187362878 63.40159776165916 132.42658847968625 63.62452608224676 132.86 63.47 Z M 5.66 93.83 L 1.9100000000000001 94.49 C 1.687059862324975 94.53096744868225 1.4901393172675765 94.66029649044393 1.3639695395576006 94.84860959150359 C 1.2377997618476246 95.03692269256325 1.193091359901663 95.26823387020958 1.2400000000000002 95.49 L 1.2400000000000002 95.49 C 1.2783377951220343 95.71431098676759 1.4070923188792341 95.9130429018358 1.5961453500689502 96.03970843273291 C 1.7851983812586663 96.16637396363002 2.017966263261567 96.20986206042107 2.24 96.16 L 5.98 95.5 C 6.20614475990671 95.46408448720703 6.4074057424475335 95.33633957942021 6.536162921535335 95.14699078664403 C 6.664920100623137 94.95764199386785 6.70973353769654 94.72351275516317 6.66 94.5 L 6.66 94.5 C 6.621662204877966 94.27568901323241 6.492907681120766 94.0769570981642 6.30385464993105 93.95029156726709 C 6.114801618741334 93.82362603636997 5.882033736738434 93.78013793957892 5.66 93.83 Z M 27.49 90 L 15.22 92.15 C 14.993855240093291 92.18591551279297 14.792594257552468 92.3136604205798 14.663837078464667 92.50300921335598 C 14.535079899376864 92.69235800613215 14.490266462303461 92.92648724483684 14.540000000000001 93.15 L 14.540000000000001 93.15 C 14.578602398845513 93.37477752781506 14.706944250878315 93.57419638858205 14.895539850499413 93.7024413963244 C 15.08413545012051 93.83068640406675 15.316771001471675 93.87673217760086 15.540000000000001 93.83000000000001 L 27.810000000000002 91.66000000000001 C 28.036144759906712 91.62408448720704 28.237405742447535 91.49633957942022 28.366162921535338 91.30699078664404 C 28.494920100623137 91.11764199386786 28.53973353769654 90.88351275516318 28.490000000000002 90.66000000000001 L 28.490000000000002 90.66000000000001 C 28.446702714939473 90.43890002769162 28.316401811790197 90.24446089556572 28.12836475211928 90.12035643618292 C 27.94032769244836 89.99625197680011 27.710318299759845 89.95288631367306 27.49 90 Z M 157 68.83 L 160.75 68.17 C 160.9743109867676 68.13166220487797 161.1730429018358 68.00290768112076 161.2997084327329 67.81385464993105 C 161.42637396363 67.62480161874133 161.46986206042106 67.39203373673843 161.42 67.17 L 161.42 67.17 C 161.38166220487795 66.94568901323241 161.25290768112075 66.7469570981642 161.06385464993105 66.62029156726709 C 160.87480161874132 66.49362603636997 160.64203373673843 66.45013793957892 160.42 66.5 L 156.67 67.16 C 156.4456890132324 67.19833779512203 156.2469570981642 67.32709231887924 156.1202915672671 67.51614535006895 C 155.99362603637 67.70519838125867 155.95013793957892 67.93796626326157 156 68.16 L 156 68.16 C 156.03833779512203 68.38431098676759 156.16709231887924 68.5830429018358 156.35614535006894 68.70970843273291 C 156.54519838125867 68.83637396363002 156.77796626326156 68.87986206042108 157 68.83 Z M 135.17000000000002 72.67999999999999 L 147.44000000000003 70.52 C 147.6647775278151 70.48139760115448 147.8641963885821 70.35305574912168 147.9924413963244 70.16446014950058 C 148.12068640406676 69.97586454987949 148.16673217760086 69.74322899852832 148.12000000000003 69.52 L 148.12000000000003 69.52 C 148.08139760115452 69.29522247218495 147.95305574912172 69.09580361141795 147.76446014950062 68.9675586036756 C 147.57586454987953 68.83931359593325 147.34322899852836 68.79326782239914 147.12000000000003 68.83999999999999 L 134.85000000000002 71.00999999999999 C 134.62385524009332 71.04591551279294 134.42259425755248 71.17366042057978 134.2938370784647 71.36300921335597 C 134.16507989937688 71.55235800613214 134.12026646230348 71.78648724483682 134.17000000000002 72.00999999999999 L 134.17000000000002 72.00999999999999 C 134.20807823186823 72.23649293126078 134.3383041840753 72.43708299343028 134.5296934558047 72.56404419348841 C 134.72108272753414 72.69100539354655 134.9565242891685 72.73298685045998 135.18 72.68 Z M 4.63 80.5 L 0.83 80.5 C 0.3716036576404422 80.5 7.771561172376096e-16 80.87160365764043 0 81.33 L 0 81.33 C -0.000032600478235342806 81.79004184092359 0.3699907583995394 82.16452331255893 0.8299999999999997 82.17 L 4.63 82.17 C 5.091663882761253 82.16459987050395 5.464599870503956 81.79166388276126 5.47 81.33 L 5.47 81.33 C 5.464523312558926 80.86999075839954 5.090041840923589 80.49996739952176 4.63 80.5 Z M 26.81 80.5 L 14.34 80.5 C 13.881603657640442 80.5 13.51 80.87160365764043 13.51 81.33 L 13.51 81.33 C 13.509967399521765 81.79004184092359 13.87999075839954 82.16452331255893 14.34 82.17 L 26.81 82.17 C 27.27000924160046 82.16452331255893 27.640032600478232 81.79004184092359 27.639999999999997 81.33 L 27.639999999999997 81.33 C 27.639999999999997 80.87160365764043 27.268396342359555 80.5 26.81 80.5 Z M 158 82.17 L 161.81 82.17 C 162.27000924160046 82.16452331255894 162.64003260047826 81.79004184092359 162.64000000000001 81.33 L 162.64000000000001 81.33 C 162.64000000000001 81.10987031343318 162.55255382249672 80.89875656572703 162.39689862838483 80.74310137161515 C 162.24124343427297 80.5874461775033 162.03012968656682 80.5 161.81 80.5 L 158 80.5 C 157.77987031343318 80.5 157.56875656572703 80.5874461775033 157.41310137161517 80.74310137161515 C 157.25744617750328 80.89875656572703 157.17 81.10987031343318 157.17 81.33 L 157.17 81.33 C 157.16996739952177 81.79004184092359 157.53999075839954 82.16452331255894 158 82.17 Z M 135.82999999999998 82.17 L 148.29 82.17 C 148.75166388276125 82.16459987050396 149.12459987050394 81.79166388276126 149.13 81.33 L 149.13 81.33 C 149.12452331255892 80.86999075839954 148.7500418409236 80.49996739952176 148.29 80.5 L 135.86 80.5 C 135.6398703134332 80.5 135.42875656572704 80.5874461775033 135.27310137161518 80.74310137161515 C 135.1174461775033 80.89875656572703 135.03 81.10987031343318 135.03 81.33 L 135.03 81.33 C 135.02996739952178 81.79004184092359 135.39999075839955 82.16452331255894 135.86 82.17 Z M 5.94 67.2 L 2.2 66.54 C 1.9779662632615667 66.49013793957893 1.7451983812586662 66.53362603636998 1.5561453500689502 66.6602915672671 C 1.367092318879234 66.78695709816421 1.238337795122034 66.98568901323242 1.2000000000000002 67.21000000000001 L 1.2000000000000002 67.21000000000001 C 1.1501379395789295 67.43203373673845 1.1936260363699809 67.66480161874134 1.3202915672670903 67.85385464993105 C 1.4469570981642 68.04290768112077 1.6456890132324156 68.17166220487798 1.8699999999999997 68.21000000000001 L 5.62 68.87 C 5.842033736738434 68.91986206042108 6.0748016187413345 68.87637396363003 6.26385464993105 68.74970843273292 C 6.452907681120767 68.6230429018358 6.581662204877966 68.4243109867676 6.62 68.2 L 6.62 68.2 C 6.66973353769654 67.97648724483683 6.624920100623137 67.74235800613215 6.496162921535335 67.55300921335598 C 6.3674057424475325 67.36366042057979 6.16614475990671 67.23591551279297 5.94 67.2 Z M 27.78 71.05 L 15.51 68.88 C 15.286487244836827 68.83026646230346 15.052358006132149 68.87507989937686 14.863009213355971 69.00383707846467 C 14.673660420579791 69.13259425755247 14.545915512792961 69.33385524009329 14.51 69.56 L 14.51 69.56 C 14.46026646230346 69.78351275516317 14.505079899376863 70.01764199386785 14.633837078464666 70.20699078664403 C 14.762594257552466 70.39633957942021 14.96385524009329 70.52408448720703 15.19 70.56 L 27.46 72.72 C 27.68176612979041 72.76690864009834 27.913077307436744 72.72220023815237 28.10139040849641 72.59603046044239 C 28.289703509556077 72.46986068273242 28.419032551317745 72.27294013767502 28.46 72.05 L 28.46 72.05 C 28.50973353769654 71.82648724483683 28.464920100623136 71.59235800613214 28.336162921535337 71.40300921335597 C 28.207405742447534 71.21366042057979 28.00614475990671 71.08591551279297 27.78 71.05 Z M 156.72 95.47 L 160.47 96.13 C 160.69203373673844 96.17986206042107 160.92480161874133 96.13637396363002 161.11385464993106 96.00970843273291 C 161.30290768112076 95.8830429018358 161.43166220487797 95.68431098676758 161.47 95.46 L 161.47 95.46 C 161.51690864009834 95.23823387020958 161.47220023815237 95.00692269256325 161.3460304604424 94.81860959150359 C 161.21986068273242 94.63029649044392 161.02294013767502 94.50096744868226 160.8 94.46 L 157 93.83 C 156.77648724483683 93.78026646230346 156.54235800613216 93.82507989937686 156.35300921335596 93.95383707846467 C 156.1636604205798 94.08259425755247 156.03591551279297 94.28385524009329 156 94.51 L 156 94.51 C 155.96289221099684 94.73357274657941 156.01881963099143 94.96259611072594 156.15479843068607 95.14390117698545 C 156.2907772303807 95.32520624324496 156.49497998236288 95.4430231084008 156.72 95.47 Z M 134.89 91.62 L 147.16 93.79 C 147.38322899852832 93.83673217760085 147.6158645498795 93.79068640406675 147.80446014950058 93.6624413963244 C 147.99305574912168 93.53419638858205 148.12139760115448 93.33477752781505 148.16 93.11 L 148.16 93.11 C 148.20673217760083 92.88677100147167 148.16068640406672 92.6541354501205 148.03244139632437 92.46553985049941 C 147.90419638858205 92.27694425087832 147.70477752781505 92.14860239884551 147.48 92.11 L 135.18 90 C 134.95677100147168 89.95326782239916 134.7241354501205 89.99931359593326 134.53553985049942 90.12755860367561 C 134.34694425087832 90.25580361141796 134.21860239884552 90.45522247218496 134.18 90.68 L 134.18 90.68 C 134.14867964077595 90.89893421176937 134.20603181832934 91.12131454915627 134.33932974314976 91.29779349187625 C 134.47262766797016 91.47427243459624 134.67084639173072 91.59025357218836 134.89 91.62 Z M 9.54 54.32 L 6 53 C 5.793255611065928 52.92327505669417 5.564321928750875 52.933055874297374 5.364874851168701 53.027134684477645 C 5.1654277735865275 53.121213494657916 5.012279745390675 53.29165989899382 4.9399999999999995 53.5 L 4.9399999999999995 53.5 C 4.862803837894552 53.70545080875622 4.87118991339656 53.933272982128024 4.963281880013991 54.1324923384841 C 5.055373846631421 54.33171169484017 5.223484557192841 54.4856988954015 5.43 54.56 L 9 55.88 C 9.41013698353941 56.00275439484615 9.845686810061794 55.78933497985018 10 55.39 L 10 55.39 C 10.164650781901146 54.96756006493697 9.959844044839212 54.491161785249425 9.54 54.32 Z M 30.38 61.9 L 18.67 57.64 C 18.236588479686226 57.485473917753254 17.759521873628778 57.708402238340845 17.6 58.14 L 17.6 58.14 C 17.446114114220833 58.57074556554756 17.669725531961927 59.04480177115869 18.1 59.2 L 29.810000000000002 63.47 C 30.243123805768178 63.618801222589745 30.716271284241948 63.39770427003191 30.880000000000003 62.97 L 30.880000000000003 62.97 C 31.03452608224675 62.53658847968622 30.811597761659154 62.059521873628775 30.38 61.9 Z M 153.12 108.35 L 156.70000000000002 109.64999999999999 C 156.9067443889341 109.72672494330581 157.13567807124915 109.71694412570261 157.3351251488313 109.62286531552235 C 157.5345722264135 109.52878650534207 157.68772025460933 109.35834010100616 157.76000000000002 109.14999999999999 L 157.76000000000002 109.14999999999999 C 157.83719616210547 108.94454919124377 157.82881008660345 108.71672701787196 157.73671811998602 108.51750766151589 C 157.6446261533686 108.31828830515981 157.47651544280717 108.1643011045985 157.27 108.08999999999999 L 153.69 106.78999999999999 C 153.4845491912438 106.71280383789454 153.25672701787198 106.72118991339656 153.0575076615159 106.81328188001399 C 152.85828830515982 106.9053738466314 152.7043011045985 107.07348455719283 152.63 107.27999999999999 L 152.63 107.27999999999999 C 152.55248478161184 107.48683310026256 152.5606098422439 107.7160325063839 152.65257643703103 107.91685751949045 C 152.74454303181815 108.11768253259702 152.91276465087876 108.2735666923352 153.12 108.35 Z M 132.29000000000002 100.75999999999999 L 144 105 C 144.43312380576816 105.14880122258974 144.90627128424194 104.92770427003191 145.07 104.5 L 145.07 104.5 C 145.21880122258975 104.06687619423182 144.9977042700319 103.59372871575806 144.57 103.43 L 132.86 99.2 C 132.65188088008512 99.12297574685259 132.42158430976704 99.13250088100921 132.22053663257702 99.2264483937148 C 132.01948895538703 99.32039590642042 131.86443533553955 99.49094095458416 131.79000000000002 99.7 L 131.79000000000002 99.7 C 131.7132750566942 99.90674438893407 131.7230558742974 100.13567807124912 131.81713468447765 100.3351251488313 C 131.91121349465791 100.53457222641347 132.08165989899382 100.68772025460933 132.29 100.76 Z M 15.29000000000002 42.25999999999999 L 12 40.36 C 11.80957925391132 40.24890585155714 11.582446111850443 40.21916652656878 11.369842757178347 40.27749134068236 C 11.157239402506251 40.33581615479595 10.977076661749782 40.47729151843332 10.870000000000001 40.67 L 10.870000000000001 40.67 C 10.758097530725506 40.859197675675965 10.726841418257013 41.08540164636887 10.783245042690272 41.29785529840082 C 10.83964866712353 41.51030895043276 10.978988905633036 41.69122185449434 11.170000000000002 41.800000000000004 L 14.46 43.7 C 14.650728078365987 43.81235545710878 14.878435494276228 43.843867873486026 15.092508640772223 43.787532834934446 C 15.306581787268218 43.73119779638287 15.489282130880044 43.59168333802614 15.600000000000001 43.400000000000006 L 15.600000000000001 43.400000000000006 C 15.833564386122044 43.009583797537616 15.713864223454832 42.5041831107205 15.33 42.26 Z M 34.49000000000002 53.349999999999994 L 23.690000000000023 47.11999999999999 C 23.29485901959082 46.892737254689045 22.790381658004897 47.02666929758796 22.560000000000024 47.41999999999999 L 22.560000000000024 47.41999999999999 C 22.3318111014754 47.818151279846006 22.465388049028476 48.3257436805477 22.860000000000024 48.55999999999999 L 33.660000000000025 54.78999999999999 C 34.05514098040923 55.017262745310944 34.559618341995154 54.883330702412024 34.79000000000003 54.489999999999995 L 34.79000000000003 54.489999999999995 C 35.03113286926623 54.10308407243878 34.915049339375564 53.594102441379746 34.53 53.35 Z M 147.34 120.4 L 150.64000000000001 122.31 C 151.0377521117941 122.53558112189332 151.54303455236126 122.39696381518904 151.77 122 L 151.77 122 C 151.99818889852463 121.60184872015398 151.86461195097155 121.09425631945228 151.47 120.86 L 148.17 118.96 C 147.7722478882059 118.73441887810668 147.26696544763874 118.87303618481096 147.04 119.27 L 147.04 119.27 C 146.9280975307255 119.45919767567597 146.896841418257 119.68540164636887 146.95324504269027 119.89785529840081 C 147.0096486671235 120.11030895043277 147.14898890563305 120.29122185449434 147.34 120.4 Z M 128.14000000000001 109.32000000000001 L 138.93 115.55000000000001 C 139.33075000580334 115.77648195015846 139.83913004971532 115.63823825400695 140.07 115.24000000000001 L 140.07 115.24000000000001 C 140.2955811218933 114.84224788820593 140.15696381518902 114.33696544763876 139.76 114.11000000000001 L 129 107.88 C 128.809271921634 107.76764454289122 128.58156450572378 107.73613212651398 128.36749135922778 107.79246716506555 C 128.1534182127318 107.84880220361713 127.97071786911995 107.98831666197387 127.86 108.17999999999999 L 127.86 108.17999999999999 C 127.62826938080275 108.57298509407761 127.75257538735643 109.07908812076046 128.14 109.32 Z M 23.11 31.4 L 20.2 29 C 19.847601531604234 28.70992800704409 19.32806181184373 28.754333111297125 19.03 29.1 L 19.03 29.1 C 18.888024583045212 29.268376426282522 18.8187923256116 29.486277947742916 18.837548259223876 29.70572237100651 C 18.85630419283615 29.9251667942701 18.961510277866438 30.128159055690848 19.130000000000003 30.270000000000003 L 22 32.67 C 22.355664605942412 32.96122536322346 22.87841588310464 32.916924407531745 23.18 32.57 L 23.18 32.57 C 23.483077145065035 32.22734876141813 23.451769907372558 31.70407064570099 23.11 31.4 Z M 40.11 45.65 L 30.56 37.65 C 30.391623573717478 37.50802458304521 30.173722052257087 37.4387923256116 29.95427762899349 37.45754825922388 C 29.7348332057299 37.476304192836146 29.531840944309156 37.581510277866435 29.39 37.75 L 29.39 37.75 C 29.24802458304521 37.91837642628252 29.1787923256116 38.13627794774291 29.197548259223876 38.35572237100651 C 29.216304192836148 38.5751667942701 29.321510277866437 38.77815905569084 29.490000000000002 38.92 L 39.040000000000006 46.92 C 39.20837642628253 47.06197541695479 39.42627794774292 47.1312076743884 39.645722371006514 47.11245174077613 C 39.86516679427011 47.093695807163854 40.06815905569085 46.988489722133565 40.21000000000001 46.82 L 40.21000000000001 46.82 C 40.35081191823518 46.65036436647191 40.41834933336751 46.431676583516925 40.39771298055623 46.212180830887874 C 40.37707662774495 45.99268507825883 40.269962217763656 45.7904175523658 40.1 45.65 Z M 139.56 131.27 L 142.48 133.72 C 142.64963563352808 133.86081191823516 142.86832341648307 133.9283493333675 143.08781916911212 133.9077129805562 C 143.30731492174115 133.88707662774493 143.5095824476342 133.77996221776363 143.64999999999998 133.60999999999999 L 143.64999999999998 133.60999999999999 C 143.9400719929559 133.25760153160422 143.89566688870286 132.73806181184372 143.54999999999998 132.44 L 140.62 130 C 140.45162357371748 129.85802458304522 140.2337220522571 129.7887923256116 140.0142776289935 129.80754825922386 C 139.79483320572993 129.82630419283615 139.59184094430918 129.93151027786644 139.45000000000002 130.1 L 139.45000000000002 130.1 C 139.1599280070441 130.45239846839576 139.20433311129713 130.9719381881563 139.55 131.27 Z M 122.56 117.02000000000001 L 132.11 125.02000000000001 C 132.27837642628253 125.16197541695479 132.49627794774293 125.2312076743884 132.7157223710065 125.21245174077613 C 132.9351667942701 125.19369580716386 133.13815905569083 125.08848972213357 133.28 124.92000000000002 L 133.28 124.92000000000002 C 133.57007199295592 124.56760153160425 133.5256668887029 124.04806181184375 133.18 123.75000000000001 L 123.63000000000001 115.75000000000001 C 123.46162357371749 115.60802458304522 123.2437220522571 115.53879232561161 123.0242776289935 115.55754825922388 C 122.8048332057299 115.57630419283616 122.60184094430916 115.68151027786645 122.46000000000001 115.85000000000001 L 122.46000000000001 115.85000000000001 C 122.18010612447944 116.20014329575741 122.22880474426137 116.7092652298413 122.57 117 Z M 32.67 22 L 30.220000000000002 19.09 C 30.078159055690847 18.921510277866435 29.8751667942701 18.816304192836146 29.655722371006508 18.797548259223873 C 29.436277947742916 18.7787923256116 29.218376426282525 18.84802458304521 29.050000000000004 18.99 L 29.050000000000004 18.99 C 28.8788851060514 19.141436646894533 28.7768481487279 19.35604834696672 28.7674139503232 19.58435594836046 C 28.757979751918498 19.812663549754202 28.841962570079748 20.034962017408404 29 20.2 L 31.45 23.11 C 31.590417552365803 23.279962217763654 31.792685078258828 23.387076627744943 32.01218083088788 23.40771298055622 C 32.23167658351692 23.4283493333675 32.45036436647191 23.360811918235168 32.62 23.22 L 32.62 23.22 C 32.79169893818228 23.066790625310713 32.89394222388279 22.850512301931627 32.9033653205748 22.620588742646508 C 32.91278841726682 22.390665183361392 32.828586027589346 22.166745643778288 32.67 22 Z M 46.92 39 L 38.92 29.45 C 38.77815905569084 29.281510277866435 38.5751667942701 29.176304192836145 38.35572237100651 29.157548259223873 C 38.13627794774291 29.138792325611597 37.91837642628252 29.20802458304521 37.75 29.349999999999998 L 37.75 29.349999999999998 C 37.581510277866435 29.491840944309153 37.476304192836146 29.6948332057299 37.45754825922388 29.914277628993492 C 37.4387923256116 30.133722052257085 37.50802458304521 30.351623573717475 37.65 30.519999999999996 L 45.65 40.06999999999999 C 45.79184094430916 40.23848972213356 45.9948332057299 40.34369580716385 46.21427762899349 40.36245174077612 C 46.43372205225709 40.38120767438839 46.65162357371748 40.31197541695478 46.82 40.169999999999995 L 46.82 40.169999999999995 C 46.988489722133565 40.028159055690836 47.093695807163854 39.825166794270096 47.11245174077612 39.60572237100651 C 47.1312076743884 39.38627794774291 47.06197541695479 39.16837642628252 46.92 39 Z M 130 140.62 L 132.44 143.54 C 132.73806181184372 143.88566688870287 133.25760153160422 143.9300719929559 133.60999999999999 143.64 L 133.60999999999999 143.64 C 133.77996221776363 143.4995824476342 133.88707662774493 143.29731492174116 133.9077129805562 143.07781916911213 C 133.9283493333675 142.85832341648307 133.86081191823516 142.6396356335281 133.72 142.47 L 131.27 139.55 C 130.9719381881563 139.20433311129713 130.45239846839578 139.1599280070441 130.10000000000002 139.45000000000002 L 130.10000000000002 139.45000000000002 C 129.93151027786647 139.59184094430918 129.82630419283618 139.7948332057299 129.8075482592239 140.0142776289935 C 129.7887923256116 140.2337220522571 129.85802458304522 140.45162357371748 130 140.62 Z M 115.75 123.62 L 123.75 133.17000000000002 C 124.04806181184374 133.5156668887029 124.56760153160424 133.56007199295593 124.92 133.27 L 124.92 133.27 C 125.08848972213356 133.12815905569084 125.19369580716385 132.9251667942701 125.21245174077612 132.70572237100652 C 125.23120767438839 132.48627794774293 125.16197541695477 132.26837642628254 125.02 132.10000000000002 L 117.02 122.55000000000003 C 116.87815905569084 122.38151027786647 116.6751667942701 122.27630419283618 116.4557223710065 122.2575482592239 C 116.2362779477429 122.23879232561163 116.01837642628252 122.30802458304524 115.85 122.45000000000003 L 115.85 122.45000000000003 C 115.67548098134459 122.5922938256856 115.56626594116129 122.79938840150778 115.54741001266245 123.02377395064391 C 115.52855408416362 123.24815949978006 115.60167571585569 123.47057648500353 115.75 123.64 Z M 43.7 14.49 L 41.8 11.2 C 41.69122185449433 11.008988905633036 41.51030895043275 10.869648667123528 41.29785529840081 10.81324504269027 C 41.085401646368865 10.756841418257011 40.85919767567596 10.788097530725503 40.669999999999995 10.899999999999999 L 40.669999999999995 10.899999999999999 C 40.28609071317598 11.12241667949916 40.148723390877535 11.609849113461378 40.36 12 L 42.26 15.3 C 42.49425631945228 15.694611950971549 43.00184872015398 15.828188898524626 43.4 15.600000000000001 L 43.4 15.600000000000001 C 43.78159568969859 15.370401788951096 43.91398383529702 14.880565650236909 43.7 14.49 Z M 54.79 33.7 L 48.56 22.9 C 48.32574368054772 22.50538804902845 47.81815127984602 22.371811101475373 47.42 22.599999999999998 L 47.42 22.599999999999998 C 47.02666929758797 22.830381658004875 46.89273725468906 23.334859019590795 47.120000000000005 23.729999999999997 L 53.35000000000001 34.53 C 53.46071786911997 34.72168333802613 53.643418212731795 34.86119779638287 53.85749135922779 34.91753283493444 C 54.071564505723785 34.97386787348602 54.29927192163402 34.942355457108775 54.49000000000001 34.83 L 54.49000000000001 34.83 C 54.88333070241203 34.59961834199512 55.017262745310944 34.095140980409205 54.79 33.7 Z M 119 148.17 L 120.9 151.47 C 121.13425631945229 151.86461195097155 121.64184872015399 151.99818889852463 122.04 151.77 L 122.04 151.77 C 122.43696381518905 151.54303455236126 122.57558112189332 151.0377521117941 122.35000000000001 150.64000000000001 L 120.44000000000001 147.34 C 120.33122185449434 147.14898890563305 120.15030895043277 147.00964866712354 119.93785529840083 146.95324504269027 C 119.7254016463689 146.896841418257 119.49919767567599 146.9280975307255 119.31000000000002 147.04 L 119.31000000000002 147.04 C 118.91303618481098 147.26696544763874 118.7744188781067 147.7722478882059 119 148.17 Z M 107.88 129 L 114.11 139.79 C 114.33696544763875 140.18696381518902 114.84224788820592 140.3255811218933 115.24 140.1 L 115.24 140.1 C 115.63823825400694 139.86913004971532 115.77648195015844 139.36075000580334 115.55 138.96 L 109.32 128.17000000000002 C 109.08913004971532 127.77176174599308 108.58075000580332 127.63351804984157 108.17999999999999 127.86000000000001 L 108.17999999999999 127.86000000000001 C 107.98831666197387 127.97071786911997 107.84880220361714 128.1534182127318 107.79246716506556 128.36749135922778 C 107.73613212651398 128.58156450572378 107.76764454289122 128.809271921634 107.88 129 Z M 55.88 9 L 54.58 5.4 C 54.505698895401494 5.193484557192842 54.35171169484017 5.025373846631422 54.152492338484095 4.9332818800139915 C 53.95327298212802 4.841189913396561 53.725450808756214 4.832803837894553 53.519999999999996 4.91 L 53.519999999999996 4.91 C 53.300582751178574 4.9773793693036605 53.11944989738322 5.1336372431512185 53.020619823448136 5.340800282745903 C 52.92178974951306 5.547963322340588 52.914310623105386 5.787065176226304 53 6 L 54.3 9.57 C 54.37443533553954 9.779059045415842 54.529488955387 9.949604093579586 54.73053663257701 10.043551606285195 C 54.93158430976701 10.137499118990805 55.16188088008511 10.147024253147416 55.37 10.07 L 55.37 10.07 C 55.58260783014072 9.999962300005928 55.75734163521123 9.846052172967488 55.85365417006526 9.643984697881576 C 55.9499667049193 9.441917222795663 55.95948488422419 9.209259461046505 55.88 9 Z M 63.47 29.83 L 59.2 18.1 C 59.04480177115869 17.669725531961927 58.57074556554756 17.446114114220833 58.14 17.6 L 58.14 17.6 C 57.708402238340845 17.759521873628778 57.485473917753254 18.236588479686226 57.64 18.67 L 61.9 30.38 C 62.059521873628775 30.811597761659154 62.53658847968622 31.034526082246746 62.97 30.88 L 62.97 30.88 C 63.39770427003191 30.716271284241945 63.618801222589745 30.243123805768175 63.47 29.81 Z M 106.78999999999999 153.70999999999998 L 108.08999999999999 157.29 C 108.1643011045985 157.49651544280715 108.31828830515981 157.66462615336857 108.51750766151589 157.756718119986 C 108.71672701787196 157.84881008660344 108.94454919124377 157.85719616210545 109.14999999999999 157.78 L 109.14999999999999 157.78 C 109.35834010100616 157.7077202546093 109.52878650534207 157.55457222641348 109.62286531552235 157.3551251488313 C 109.71694412570261 157.15567807124913 109.72672494330581 156.92674438893408 109.64999999999999 156.72 L 108.35 153.14 C 108.2735666923352 152.93276465087874 108.11768253259702 152.76454303181814 107.91685751949046 152.672576437031 C 107.7160325063839 152.5806098422439 107.48683310026257 152.57248478161182 107.28 152.64999999999998 L 107.28 152.64999999999998 C 106.86030893284271 152.80495261724087 106.64227939356819 153.267709190395 106.79 153.69 Z M 99.2 132.86 L 103.46000000000001 144.57000000000002 C 103.62372871575806 144.99770427003193 104.09687619423183 145.21880122258978 104.53 145.07000000000002 L 104.53 145.07000000000002 C 104.94589904144566 144.89468187437382 105.15225929385046 144.42488300187776 105 144 L 100.73 132.29 C 100.65772025460933 132.08165989899382 100.50457222641347 131.91121349465791 100.30512514883131 131.81713468447765 C 100.10567807124913 131.72305587429736 99.87674438893407 131.71327505669416 99.67 131.79 L 99.67 131.79 C 99.24622904616933 131.95723477225266 99.03646241952862 132.43478858183897 99.2 132.86 Z M 68.83 5.66 L 68.17 1.9100000000000001 C 68.13166220487797 1.685689013232416 68.00290768112076 1.4869570981642002 67.81385464993105 1.3602915672670906 C 67.62480161874133 1.233626036369981 67.39203373673844 1.1901379395789293 67.17 1.2400000000000002 L 67.17 1.2400000000000002 C 66.94568901323241 1.2783377951220343 66.7469570981642 1.4070923188792341 66.62029156726709 1.59614535006895 C 66.49362603636997 1.7851983812586658 66.45013793957892 2.0179662632615663 66.5 2.2399999999999998 L 67.16 5.98 C 67.19591551279296 6.20614475990671 67.32366042057978 6.4074057424475335 67.51300921335597 6.536162921535335 C 67.70235800613214 6.664920100623137 67.93648724483683 6.70973353769654 68.16 6.66 L 68.16 6.66 C 68.38431098676759 6.621662204877966 68.5830429018358 6.492907681120766 68.70970843273291 6.30385464993105 C 68.83637396363002 6.114801618741334 68.87986206042108 5.882033736738434 68.83 5.66 Z M 72.67999999999999 27.49 L 70.52 15.22 C 70.48408448720703 14.993855240093291 70.35633957942021 14.792594257552468 70.16699078664402 14.663837078464667 C 69.97764199386785 14.535079899376864 69.74351275516317 14.490266462303461 69.52 14.540000000000001 L 69.52 14.540000000000001 C 69.29385524009328 14.575915512792962 69.09259425755246 14.703660420579793 68.96383707846465 14.893009213355972 C 68.83507989937685 15.082358006132152 68.79026646230345 15.316487244836829 68.83999999999999 15.540000000000001 L 71.00999999999999 27.810000000000002 C 71.04591551279296 28.036144759906712 71.17366042057978 28.237405742447535 71.36300921335597 28.366162921535338 C 71.55235800613214 28.494920100623137 71.78648724483682 28.53973353769654 72.00999999999999 28.490000000000002 L 72.00999999999999 28.490000000000002 C 72.23294013767502 28.44903255131775 72.42986068273242 28.31970350955608 72.5560304604424 28.131390408496415 C 72.68220023815238 27.943077307436745 72.72690864009834 27.711766129790412 72.68 27.49 Z M 93.83 157 L 94.49 160.75 C 94.53096744868226 160.972940137675 94.66029649044393 161.1698606827324 94.84860959150359 161.29603046044238 C 95.03692269256325 161.42220023815236 95.26823387020958 161.46690864009832 95.49 161.42 L 95.49 161.42 C 95.71431098676759 161.38166220487795 95.9130429018358 161.25290768112075 96.03970843273291 161.06385464993105 C 96.16637396363002 160.87480161874132 96.20986206042107 160.64203373673843 96.16 160.42 L 95.5 156.67 C 95.46166220487797 156.4456890132324 95.33290768112076 156.2469570981642 95.14385464993104 156.1202915672671 C 94.95480161874133 155.99362603637 94.72203373673842 155.95013793957892 94.5 156 L 94.5 156 C 94.27568901323241 156.03833779512203 94.0769570981642 156.16709231887924 93.95029156726709 156.35614535006894 C 93.82362603636997 156.54519838125867 93.78013793957892 156.77796626326156 93.83 157 Z M 90 135.18 L 92.17 147.45000000000002 C 92.20860239884551 147.67477752781508 92.33694425087832 147.87419638858208 92.52553985049941 148.0024413963244 C 92.71413545012051 148.13068640406675 92.94677100147167 148.17673217760085 93.17 148.13000000000002 L 93.17 148.13000000000002 C 93.39477752781505 148.0913976011545 93.59419638858205 147.9630557491217 93.7224413963244 147.7744601495006 C 93.85068640406675 147.58586454987952 93.89673217760085 147.35322899852835 93.85000000000001 147.13000000000002 L 91.68 134.86 C 91.64408448720705 134.6338552400933 91.51633957942022 134.43259425755247 91.32699078664403 134.30383707846468 C 91.13764199386786 134.17507989937687 90.90351275516318 134.13026646230347 90.68 134.18 L 90.68 134.18 C 90.45522247218496 134.21860239884552 90.25580361141796 134.34694425087832 90.12755860367561 134.53553985049942 C 89.99931359593326 134.7241354501205 89.95326782239916 134.95677100147168 90 135.18 Z M 82.17 4.63 L 82.17 0.83 C 82.16452331255893 0.3699907583995394 81.79004184092359 -0.000032600478235944585 81.33 0 L 81.33 0 C 80.87160365764043 8.984815199181824e-16 80.5 0.37160365764044206 80.5 0.8299999999999998 L 80.5 4.63 C 80.49996739952176 5.090041840923589 80.86999075839954 5.464523312558926 81.33 5.47 L 81.33 5.47 C 81.79166388276126 5.464599870503956 82.16459987050395 5.091663882761253 82.17 4.630000000000001 Z M 82.17 26.81 L 82.17 14.34 C 82.16452331255893 13.87999075839954 81.79004184092359 13.509967399521765 81.33 13.51 L 81.33 13.51 C 80.87160365764043 13.510000000000002 80.5 13.881603657640442 80.5 14.34 L 80.5 26.81 C 80.5 27.268396342359555 80.87160365764043 27.639999999999997 81.33 27.639999999999997 L 81.33 27.639999999999997 C 81.79004184092359 27.640032600478232 82.16452331255893 27.27000924160046 82.17 26.81 Z M 80.5 158 L 80.5 161.81 C 80.5 162.03012968656682 80.5874461775033 162.24124343427297 80.74310137161515 162.39689862838483 C 80.89875656572703 162.55255382249672 81.10987031343318 162.64000000000001 81.33 162.64000000000001 L 81.33 162.64000000000001 C 81.79004184092359 162.64003260047826 82.16452331255894 162.27000924160046 82.17 161.81 L 82.17 158 C 82.16452331255894 157.53999075839954 81.79004184092359 157.16996739952174 81.33 157.17 L 81.33 157.17 C 81.10987031343318 157.17 80.89875656572703 157.25744617750328 80.74310137161515 157.41310137161517 C 80.5874461775033 157.56875656572703 80.5 157.77987031343318 80.5 158 Z M 80.5 135.82999999999998 L 80.5 148.29 C 80.49996739952176 148.7500418409236 80.86999075839954 149.12452331255892 81.33 149.13 L 81.33 149.13 C 81.79166388276126 149.12459987050394 82.16459987050396 148.75166388276125 82.17 148.29 L 82.17 135.86 C 82.16452331255894 135.39999075839955 81.79004184092359 135.02996739952175 81.33 135.03 L 81.33 135.03 C 81.10987031343318 135.03 80.89875656572703 135.1174461775033 80.74310137161515 135.27310137161518 C 80.5874461775033 135.42875656572704 80.5 135.6398703134332 80.5 135.86 Z" stroke-linecap="round" />
</g>
</g>
</g>
		<g transform="matrix(0.7915977266736507 0 0 0.7915977266736508 0 0)"  >
<g style=""  paint-order="stroke"   >
		<g transform="matrix(1 0 0 1 0 0)"  >
<path style="stroke: none; stroke-width: 1; stroke-dasharray: none; stroke-linecap: butt; stroke-dashoffset: 0; stroke-linejoin: miter; stroke-miterlimit: 4; fill: rgb(170,107,107); fill-rule: nonzero; opacity: 1;"  paint-order="stroke"  transform=" translate(-99.93, -100)" d="M 99.93 0 C 44.70152501692066 0 -0.06999999999999318 44.771525016920656 -0.06999999999999318 100 C -0.06999999999999318 155.22847498307934 44.70152501692066 200 99.93 200 C 155.15847498307934 200 199.93 155.22847498307934 199.93 100 C 199.86937629545216 44.79665567728202 155.1333443227179 0.060623704547765556 99.92999999999992 0 Z M 99.93 9.05 C 141.79064866217965 9.108953589993057 178.22369398697475 37.6877735639718 188.25 78.33 L 186.37 78.33 C 176.42382061380283 38.69390479759366 140.7949792276545 10.901030404293863 99.93 10.901030404293863 C 59.065020772345534 10.901030404293863 23.436179386197153 38.69390479759369 13.490000000000009 78.33000000000003 L 11.61 78.33 C 21.63630601302527 37.6877735639718 58.06935133782031 9.108953589993064 99.92999999999996 9.049999999999997 Z M 15.07 108.18 L 12.690000000000001 111.08000000000001 C 11.745933687440468 103.77705057129769 11.74593368744047 96.38294942870235 12.690000000000001 89.08000000000001 L 15.06 92 C 14.81 94.64 14.67 97.32 14.67 100 C 14.67 102.68 14.81 105.49 15.07 108.18 Z M 25.25 103 L 27.63 100.1 L 25.25 97.19 L 13.62 83 L 13.62 82.93 L 41.23 82.93 C 36.76314673319669 93.88205491424162 36.76314673319669 106.14794508575838 41.23 117.1 L 13.69 117.10000000000001 Z M 170.59 130.75 C 170.77 130.91 170.86 130.81 170.96 131.15 C 170.95570043427495 131.2565517645093 170.88908932309423 131.35059098029384 170.79000000000002 131.39000000000001 L 170.68 131.39000000000001 C 170.01000000000002 131.39000000000001 164.68 129.22000000000003 154.68 124.90000000000002 C 154.95000000000002 124.47000000000001 155.20000000000002 124.04000000000002 155.46 123.61000000000001 C 164.43 127.64 169.43 130 170.59 130.73 Z M 162.06 121.69 L 166.18 121.69 C 169.98000000000002 123.06 172.28 123.95 173.04000000000002 124.33 C 173.24 124.48 173.33 124.33 173.46 124.72 C 173.45546077739638 124.83275543597388 173.3787054693153 124.9297095093395 173.27 124.96 L 173.16 124.96 C 172.6 125 168.93 123.88 162.06 121.67 Z M 99.93 146.61 C 69.65 146.61 45.10000000000001 125.74000000000001 45.10000000000001 100.00000000000001 C 45.10000000000001 74.26000000000002 69.65 53.39 99.93 53.39 C 130.21 53.39 154.76 74.26 154.76 100 C 154.76 125.74 130.21 146.61 99.93 146.61 Z M 110.80000000000001 176.28000000000003 C 110.80608193561392 176.36989725016446 110.80608193561392 176.4601027498356 110.80000000000001 176.55000000000004 C 110.80000000000001 176.55000000000004 110.86000000000001 176.74000000000004 110.53000000000002 176.83000000000004 C 110.26000000000002 176.77000000000004 110.31000000000002 176.67000000000004 110.26000000000002 176.62000000000003 L 110.18000000000002 176.38000000000002 C 110.18000000000002 176.19000000000003 110.06000000000002 175.91000000000003 109.99000000000002 175.54000000000002 C 109.83000000000003 174.8 109.63000000000002 173.70000000000002 109.38000000000002 172.22000000000003 C 108.88000000000002 169.22000000000003 108.19000000000003 164.81000000000003 107.32000000000002 158.83000000000004 C 107.04000000000002 156.83000000000004 106.74000000000002 154.74000000000004 106.42000000000002 152.46000000000004 L 107.98000000000002 152.29000000000005 C 109.88 166.5 110.79 174.6 110.8 176.28 Z M 104.00000000000001 175.09000000000003 C 104.03683693889498 175.82184170265776 103.99998486918474 176.55553290870702 103.89000000000001 177.28000000000003 C 103.89000000000001 177.28000000000003 103.89000000000001 177.43000000000004 103.64000000000001 177.46000000000004 C 103.39000000000001 177.49000000000004 103.42000000000002 177.28000000000003 103.37000000000002 177.23000000000005 L 103.30000000000003 176.97000000000006 C 103.30000000000003 176.77000000000007 103.23000000000003 176.47000000000006 103.18000000000002 176.08000000000007 C 103.09000000000002 175.29000000000008 102.98000000000002 174.08000000000007 102.86000000000003 172.58000000000007 C 102.62000000000003 169.47000000000006 102.32000000000002 164.83000000000007 101.98000000000003 158.70000000000007 C 101.88000000000004 156.84000000000006 101.78000000000003 154.83000000000007 101.67000000000003 152.70000000000007 L 103.23000000000003 152.70000000000007 C 103.77 164.26 104 171.69 104 175.09 Z M 98.19000000000001 152.71000000000004 C 97.42000000000002 168.04000000000005 96.79 176.31000000000003 96.49000000000001 177.23000000000005 C 96.49000000000001 177.28000000000006 96.49000000000001 177.39000000000004 96.22000000000001 177.47000000000006 C 95.95000000000002 177.55000000000007 95.99000000000001 177.31000000000006 95.97000000000001 177.28000000000006 L 95.97000000000001 177.13000000000005 C 95.97000000000001 177.03000000000006 95.97000000000001 176.88000000000005 95.97000000000001 176.71000000000006 Q 95.97000000000001 176.15000000000006 95.97000000000001 175.09000000000006 C 95.97000000000001 171.69000000000005 96.20000000000002 164.27000000000007 96.74000000000001 152.67000000000007 Z M 93.46000000000001 152.46000000000004 C 91.31 167.83000000000004 89.99000000000001 175.75000000000003 89.62 176.62000000000003 C 89.57000000000001 176.62000000000003 89.62 176.77000000000004 89.35000000000001 176.83000000000004 C 89.01 176.74000000000004 89.12 176.60000000000005 89.08000000000001 176.55000000000004 C 89.07442125187548 176.46008645119625 89.07442125187548 176.36991354880382 89.08000000000001 176.28000000000003 C 89.08000000000001 174.60000000000002 89.99000000000001 166.49000000000004 91.91000000000001 152.28000000000003 Z M 29.27 130.73 C 29.44 130.61999999999998 29.7 130.48 30.04 130.29999999999998 C 30.72 129.93999999999997 31.73 129.43999999999997 33.1 128.79 C 35.660000000000004 127.58 39.44 125.83999999999999 44.44 123.6 C 44.699999999999996 124.03 44.949999999999996 124.46 45.22 124.89 C 35.16 129.22 29.85 131.36 29.22 131.38 C 29.15103004817422 131.3827037806776 29.083815447811936 131.35787206400366 29.03316913713441 131.31097733189483 C 28.982522826456883 131.264082599786 28.952601751163307 131.19897387603785 28.95 131.13 C 29 130.79 29.09 130.88 29.27 130.73 Z M 26.7 125 L 26.58 125 C 26.479182977372833 124.96281614358071 26.411627215426755 124.86744330318625 26.409999999999997 124.76 C 26.529999999999998 124.39 26.619999999999997 124.52000000000001 26.819999999999997 124.36 C 27.019999999999996 124.19999999999999 27.289999999999996 124.14 27.659999999999997 123.99 C 28.399999999999995 123.69 29.509999999999998 123.25999999999999 30.969999999999995 122.71 L 33.67999999999999 121.71 L 37.8 121.71 C 30.93 123.88 27.27 125 26.7 125 Z M 29.27 69.31 C 29.09 69.16 29 69.25 28.9 68.91 C 28.91016175878147 68.76698948411305 29.02670794482513 68.65475982347841 29.169999999999998 68.64999999999999 C 29.849999999999998 68.64999999999999 35.17 70.82 45.17 75.14999999999999 C 44.9 75.58 44.65 76.00999999999999 44.39 76.44 C 35.43 72.36 30.43 70 29.27 69.27 Z M 37.8 78.37 L 33.68 78.37 C 29.89 77 27.58 76.11 26.82 75.73 C 26.62 75.58 26.53 75.73 26.41 75.34 C 26.40863888362554 75.23160346981376 26.47729224389429 75.13468107884611 26.580000000000002 75.10000000000001 L 26.700000000000003 75.10000000000001 C 27.27 75.05 30.93 76.12 37.8 78.33 Z M 81.89 43.58 C 82.47 45.28 83.1 47.12 83.76 49.08 L 82.23 49.449999999999996 C 77.53 35.239999999999995 75.23 27.539999999999996 75.23 26.699999999999996 L 75.23 26.579999999999995 C 75.26111111111112 26.47333333333333 75.35888888888888 26.4 75.47 26.399999999999995 C 75.83 26.519999999999996 75.71 26.609999999999996 75.86 26.789999999999996 C 76.01 26.969999999999995 76.07 27.249999999999996 76.21 27.599999999999994 C 76.5 28.309999999999995 76.91 29.359999999999996 77.41999999999999 30.779999999999994 Q 79 35 81.89 43.58 Z M 81.83 24.869999999999997 L 81.83 24.729999999999997 C 81.85365043353048 24.604359209719725 81.962177631622 24.512528503642283 82.09 24.509999999999998 C 82.35000000000001 24.569999999999997 82.3 24.659999999999997 82.36 24.709999999999997 L 82.46 24.949999999999996 C 82.53999999999999 25.149999999999995 82.63 25.439999999999994 82.75 25.819999999999997 C 82.99 26.58 83.31 27.719999999999995 83.75 29.229999999999997 C 84.57 32.23 85.75 36.76 87.17 42.73 C 87.59 44.419999999999995 88.03 46.25 88.49 48.169999999999995 L 86.94 48.42999999999999 C 83.45 33.68 81.84 25.93 81.83 24.87 Z M 76.83 46.11 L 78.8 50.4 L 77.31 50.89 L 75.49000000000001 46.75 C 70.65 35.64 68.36 30 68.33 29.35 C 68.3291733787103 29.206356561329393 68.4371808041704 29.085388244814084 68.58 29.07 C 68.92 29.17 68.83 29.26 68.99 29.45 C 69.14999999999999 29.639999999999997 69.25 29.9 69.44 30.259999999999998 C 69.82 30.979999999999997 70.35 32.04 71.03 33.449999999999996 C 72.38 36.28 74.34 40.51 76.87 46.11 Z M 71.83 47.92 Q 73 49.84 74.17 52 L 72.72 52.58 C 68.92 45.68 66.14 40.5 64.39 37.129999999999995 C 63.50466113590849 35.6207901283024 62.75826032856596 34.034270026596744 62.16000000000001 32.38999999999999 C 62.160000000000004 32.38999999999999 62.160000000000004 32.13999999999999 62.410000000000004 32.129999999999995 C 62.660000000000004 32.12 62.660000000000004 32.3 62.82 32.47 C 62.98 32.64 63.12 32.879999999999995 63.33 33.199999999999996 C 63.739999999999995 33.849999999999994 64.33 34.81999999999999 65.11 36.12 C 66.65 38.74 68.91 42.65 71.87 47.92 Z M 67.38 51.34 L 69.31 54.120000000000005 C 68.84 54.34 68.36 54.57000000000001 67.9 54.81 Q 61.31 45.150000000000006 58.370000000000005 40.57 C 56.7 37.94 55.900000000000006 36.72 55.85 36.3 C 55.85 36.3 55.92 36.04 56.1 36.04 C 56.28 36.04 56.36 36.19 56.54 36.36 C 56.72 36.53 56.89 36.76 57.14 37.089999999999996 C 57.65 37.73 58.37 38.69 59.3 39.959999999999994 Q 62.13 43.77 67.42 51.34 Z M 62.85 54 C 63.5 54.77 64.19 55.59 64.85 56.44 L 63.50999999999999 57.239999999999995 C 56.849999999999994 49.12 52.709999999999994 43.88999999999999 51.11999999999999 41.699999999999996 C 50.62999999999999 40.98 50.38999999999999 40.699999999999996 50.34999999999999 40.419999999999995 L 50.34999999999999 40.26 L 50.54999999999999 40.16 C 50.79999999999999 40.16 50.79999999999999 40.29 50.98999999999999 40.43 L 51.62999999999999 41.08 C 52.15999999999999 41.65 52.929999999999986 42.5 53.93999999999999 43.64 C 56 46 59 49.4 62.85 54 Z M 59.11 58.17 L 60.32 59.370000000000005 C 59.89 59.67 59.48 59.980000000000004 59.06 60.290000000000006 C 51.84 53.02000000000001 47.45 48.45 45.77 46.540000000000006 C 45.24 45.900000000000006 45 45.720000000000006 44.940000000000005 45.39000000000001 L 45.00000000000001 45.21000000000001 L 45.190000000000005 45.13000000000001 C 45.52 45.20000000000001 45.720000000000006 45.45000000000001 46.400000000000006 46.01000000000001 C 47.080000000000005 46.570000000000014 47.910000000000004 47.37000000000001 49.06 48.45000000000001 Q 52.52 51.74 59.11 58.21 Z M 55.11 61.67 L 56.17 62.550000000000004 C 55.78 62.88 55.39 63.230000000000004 55.010000000000005 63.550000000000004 C 46.5 56.41 41.65 52.13 40.57 51 C 40.42 50.8 40.34 50.8 40.29 50.54 L 40.37 50.36 L 40.54 50.29 C 40.839999999999996 50.29 41.08 50.56 41.769999999999996 51.04 C 42.459999999999994 51.519999999999996 43.339999999999996 52.21 44.54 53.16 Q 48.14 56 55.14 61.71 Z M 40.56 58.78 C 43.22 60.480000000000004 47.08 63.03 52.1 66.41 C 51.74 66.78 51.4 67.16 51.050000000000004 67.53 C 42.14 61.370000000000005 37.230000000000004 57.81 36.14 56.84 C 35.980000000000004 56.660000000000004 35.89 56.690000000000005 35.83 56.410000000000004 L 35.93 56.2 L 36.089999999999996 56.150000000000006 C 36.52 56.21 37.82 57.05 40.56 58.78 Z M 37 64.17 Q 41 66.25 48.57 70.42 C 48.25 70.82000000000001 47.95 71.23 47.64 71.64 C 38.79 66.64 33.730000000000004 63.57 32.56 62.7 C 32.38 62.52 32.28 62.580000000000005 32.21 62.27 C 32.14 61.96 32.44 62.010000000000005 32.47 62.010000000000005 C 34.037937582971296 62.60160551242925 35.553288309399065 63.324156852182895 36.999999999999986 64.17 Z M 32.54 137.3 C 32.72 137.17000000000002 32.98 136.99 33.32 136.77 C 34 136.33 35.01 135.71 36.32 134.9 C 38.88 133.37 42.65 131.18 47.59 128.37 L 48.510000000000005 129.58 C 43.510000000000005 132.36 39.60000000000001 134.44000000000003 36.95 135.83 C 35.52057754664436 136.68492587447824 34.01799954790687 137.41111613221995 32.46 138 C 32.46 138 32.2 138 32.2 137.75 C 32.2 137.5 32.37 137.48 32.54 137.3 Z M 36.14 143.16000000000003 L 36.83 142.59000000000003 C 37.44 142.11000000000004 38.36 141.43000000000004 39.58 140.53000000000003 C 42.04 138.76000000000002 45.73 136.15000000000003 50.699999999999996 132.71000000000004 L 51.05 132.47000000000003 L 52.05 133.59000000000003 C 47.05 136.97000000000003 43.169999999999995 139.52000000000004 40.519999999999996 141.23000000000002 C 37.87 142.94 36.519999999999996 143.79000000000002 36.05 143.85000000000002 L 35.89 143.79000000000002 L 35.79 143.59000000000003 C 35.89 143.31 36 143.34 36.14 143.16 Z M 40.57 149 C 40.72 148.83 40.95 148.61 41.25 148.33 C 41.84 147.76000000000002 42.73 146.95000000000002 43.91 145.91000000000003 Q 47.47 142.78000000000003 54.51 136.81000000000003 L 55.04 136.37000000000003 C 55.42 136.71000000000004 55.8 137.06000000000003 56.199999999999996 137.37000000000003 C 48.59 143.68 43.79 147.5 41.77 149 C 41.080000000000005 149.48 40.84 149.7 40.540000000000006 149.75 C 40.40574172072658 149.72963365731485 40.300366342685166 149.62425827927342 40.28000000000001 149.49 C 40.33 149.22 40.42 149.22 40.57 149 Z M 45.77 153.4 C 46.290000000000006 152.81 47.07 151.95000000000002 48.120000000000005 150.85 Q 51.260000000000005 147.54 57.620000000000005 141.1 L 59.06 139.65 C 59.480000000000004 139.96 59.89 140.27 60.32 140.57 C 53.06 147.73 48.32 152.2 46.39 153.93 C 45.72 154.49 45.52 154.74 45.19 154.8 L 45 154.73000000000002 L 44.94 154.55 C 45 154.24 45.24 154.06 45.77 153.42 Z M 51.160000000000004 158.24 C 51.650000000000006 157.56 52.39 156.60000000000002 53.36000000000001 155.34 C 55.36000000000001 152.84 58.24000000000001 149.19 62.13000000000001 144.43 L 63.55000000000001 142.70000000000002 L 64.89000000000001 143.50000000000003 C 56.890000000000015 153.15000000000003 52.250000000000014 158.40000000000003 51.08000000000001 159.50000000000003 C 50.890000000000015 159.65000000000003 50.890000000000015 159.73000000000002 50.640000000000015 159.78000000000003 C 50.390000000000015 159.83000000000004 50.38000000000002 159.59000000000003 50.38000000000002 159.52000000000004 C 50.43 159.23 50.67 159 51.16 158.26 Z M 58.410000000000004 159.41 Q 60.900000000000006 155.54 65.98 148.05 L 67.98 145.17000000000002 C 68.44 145.41000000000003 68.92 145.64000000000001 69.39 145.86 C 62 156.43 57.7 162.39 56.58 163.64 C 56.4 163.80999999999997 56.43 163.89999999999998 56.14 163.95999999999998 C 55.85 164.01999999999998 55.89 163.73999999999998 55.89 163.7 C 55.94 163.28 56.73 162.06 58.41 159.43 Z M 64.41 162.82999999999998 C 65.89 159.98 68.1 155.82999999999998 71.05 150.45 C 71.59 149.45 72.14999999999999 148.45 72.74 147.38 L 74.19999999999999 147.96 C 67.58999999999999 159.78 63.80999999999999 166.19 62.83999999999999 167.5 C 62.67999999999999 167.66 62.73999999999999 167.75 62.42999999999999 167.83 C 62.28874535703077 167.8195084058851 62.179610907818535 167.7016432007359 62.17999999999999 167.56 C 62.77846184502365 165.92878869710745 63.51792526924698 164.35282818665863 64.38999999999999 162.85 Z M 75.50999999999999 153.23 C 76.07999999999998 151.92 76.69 150.54 77.32999999999998 149.09 C 77.81999999999998 149.25 78.32999999999998 149.43 78.81999999999998 149.58 C 73.23999999999998 162.05 69.88999999999999 169.09 69.00999999999998 170.58 C 68.84999999999998 170.76000000000002 68.93999999999998 170.86 68.59999999999998 170.96 C 68.45718080417038 170.94461175518592 68.34917337871028 170.82364343867062 68.34999999999998 170.68 C 68.36 170 70.65 164.36 75.49 153.25 Z M 82.24999999999999 150.53 L 83.77999999999999 150.9 C 79.23999999999998 164.39000000000001 76.57999999999998 171.72 75.86999999999999 173.18 C 75.71999999999998 173.37 75.86999999999999 173.46 75.47999999999999 173.58 C 75.36773605444355 173.58355214091276 75.26802384947955 173.50876798718974 75.24 173.4 L 75.24 173.28 C 75.21 172.46 77.53 164.76 82.23 150.55 Z M 86.92999999999998 151.53 L 88.47999999999998 151.79 C 84.95999999999998 166.45999999999998 82.84999999999998 174.37 82.37999999999998 175.25 C 82.37999999999998 175.3 82.37999999999998 175.39 82.11999999999998 175.44 C 81.99521721847456 175.4384963052129 81.88772246048876 175.3516736160705 81.85999999999997 175.23 L 81.85999999999997 175.09 C 81.84 174.07 83.45 166.32 86.91 151.57 Z M 89.07 23.72 C 89.06420829574317 23.630093177328327 89.06420829574317 23.53990682267167 89.07 23.45 C 89.07 23.4 89 23.27 89.33999999999999 23.16 C 89.60999999999999 23.23 89.55999999999999 23.330000000000002 89.6 23.38 L 89.67999999999999 23.61 C 89.74 23.81 89.80999999999999 24.08 89.88999999999999 24.45 Q 90.10999999999999 25.56 90.48999999999998 27.78 C 90.98999999999998 30.78 91.67999999999998 35.19 92.54999999999998 41.17 Q 92.96999999999998 44.11 93.44999999999999 47.54 L 91.88999999999999 47.71 C 90 33.5 89.07 25.4 89.07 23.72 Z M 95.86 24.91 C 95.83308007128615 24.177151884728147 95.87998307540204 23.443454891772465 96 22.72 C 96 22.72 96 22.57 96.25 22.54 C 96.5 22.509999999999998 96.47 22.72 96.52 22.77 C 96.57 22.82 96.52 22.919999999999998 96.58 23.02 C 96.64 23.12 96.66 23.53 96.7 23.919999999999998 C 96.8 24.7 96.91 25.869999999999997 97.03 27.419999999999998 C 97.27 30.529999999999998 97.57000000000001 35.17 97.91 41.31 C 98.00999999999999 43.160000000000004 98.11 45.17 98.22 47.31 L 96.66 47.31 C 96.09 35.74 95.86 28.31 95.86 24.91 Z M 101.67 47.3 C 102.44 31.97 103.07000000000001 23.689999999999998 103.37 22.769999999999996 C 103.37 22.719999999999995 103.37 22.609999999999996 103.64 22.539999999999996 C 103.91 22.469999999999995 103.87 22.699999999999996 103.89 22.719999999999995 L 103.89 22.869999999999994 C 103.89795235540099 23.00988707150638 103.89795235540099 23.15011292849361 103.89 23.289999999999996 C 103.89 23.659999999999997 103.89 24.199999999999996 103.89 24.909999999999997 C 103.89 28.309999999999995 103.66 35.739999999999995 103.12 47.33 Z M 106.4 47.54 C 108.55000000000001 32.17 109.87 24.25 110.24000000000001 23.38 C 110.29 23.33 110.24000000000001 23.23 110.51 23.16 C 110.85000000000001 23.27 110.74000000000001 23.4 110.78 23.45 C 110.78650581396029 23.53988242884643 110.78650581396029 23.63011757115357 110.78 23.72 C 110.78 25.4 109.86 33.5 107.94 47.72 Z M 163.72 56.84 L 163.03 57.410000000000004 C 162.41 57.89 161.5 58.57 160.27 59.46 C 157.82000000000002 61.25 154.13000000000002 63.85 149.16000000000003 67.29 L 148.81000000000003 67.53 L 147.81000000000003 66.41 C 152.81000000000003 63.029999999999994 156.69000000000003 60.48 159.34000000000003 58.779999999999994 C 161.99000000000004 57.07999999999999 163.34000000000003 56.209999999999994 163.81000000000003 56.16 L 163.96000000000004 56.16 L 164.07000000000005 56.36 C 164 56.69 163.88 56.66 163.72 56.84 Z M 167.4 62 C 167.54140716963323 62.00514712595518 167.65485287404482 62.118592830366765 167.66 62.26 C 167.57999999999998 62.57 167.49 62.51 167.31 62.69 L 166.54 63.21 C 165.85999999999999 63.660000000000004 164.84 64.28 163.54 65.09 C 160.98 66.62 157.20999999999998 68.81 152.26999999999998 71.62 L 151.35 70.41000000000001 C 156.35 67.63000000000001 160.26 65.55000000000001 162.91 64.16000000000001 C 164.34275876920145 63.31407533322543 165.84483288181664 62.5914739783816 167.4 62 Z M 159.29000000000002 51 C 159.14000000000001 51.16 158.91000000000003 51.39 158.61 51.67 C 158.02 52.24 157.13000000000002 53.04 155.95000000000002 54.09 C 153.58 56.18000000000001 150.04000000000002 59.230000000000004 145.34000000000003 63.190000000000005 L 144.82000000000002 63.63 C 144.44000000000003 63.29 144.06000000000003 62.940000000000005 143.66000000000003 62.63 C 151.27000000000004 56.35 156.07000000000002 52.53 158.09000000000003 51.06 C 158.78000000000003 50.580000000000005 159.02000000000004 50.36 159.32000000000002 50.31 L 159.48000000000002 50.370000000000005 L 159.57000000000002 50.56 C 159.53 50.78 159.44 50.78 159.29 51 Z M 154.09000000000003 46.6 C 153.57000000000002 47.190000000000005 152.78000000000003 48.04 151.74000000000004 49.15 C 149.64000000000004 51.36 146.49000000000004 54.61 142.24000000000004 58.9 L 140.80000000000004 60.35 C 140.38000000000005 60.04 139.97000000000003 59.730000000000004 139.54000000000005 59.43 C 146.79000000000005 52.269999999999996 151.54000000000005 47.8 153.46000000000004 46.07 C 154.14000000000004 45.52 154.34000000000003 45.26 154.67000000000004 45.19 L 154.85000000000005 45.269999999999996 L 154.92000000000004 45.449999999999996 C 154.86 45.76 154.62 45.94 154.09 46.58 Z M 148.70000000000005 41.760000000000005 C 148.20000000000005 42.440000000000005 147.47000000000006 43.400000000000006 146.49000000000004 44.660000000000004 C 144.49000000000004 47.160000000000004 141.62000000000003 50.81 137.73000000000005 55.57000000000001 L 136.31000000000006 57.300000000000004 L 134.97000000000006 56.50000000000001 C 143.02000000000007 46.85000000000001 147.61000000000007 41.60000000000001 148.78000000000006 40.50000000000001 C 148.97000000000006 40.35000000000001 148.97000000000006 40.27000000000001 149.22000000000006 40.220000000000006 L 149.42000000000004 40.31000000000001 L 149.48000000000005 40.48000000000001 C 149.43 40.77 149.19 41 148.7 41.74 Z M 141.45000000000005 40.59 Q 138.96000000000004 44.46 133.88000000000005 51.95 C 133.26000000000005 52.870000000000005 132.60000000000005 53.830000000000005 131.93000000000006 54.830000000000005 C 131.46000000000006 54.59 130.99000000000007 54.36000000000001 130.51000000000008 54.14000000000001 C 137.83000000000007 43.59 142.16000000000008 37.63000000000001 143.2800000000001 36.38000000000001 C 143.47000000000008 36.21000000000001 143.44000000000008 36.12000000000001 143.72000000000008 36.06000000000001 L 143.9300000000001 36.18000000000001 L 143.9300000000001 36.32000000000001 C 143.93 36.72 143.13 37.94 141.45 40.57 Z M 135.45000000000005 37.17 C 133.98000000000005 40.02 131.77000000000004 44.17 128.82000000000005 49.550000000000004 L 127.14000000000004 52.620000000000005 L 125.69 52 C 132.29 40.18 136.07 33.769999999999996 137.04 32.47 C 137.2 32.3 137.14 32.21 137.45 32.129999999999995 C 137.76 32.04999999999999 137.7 32.37 137.7 32.38999999999999 C 137.10178793350596 34.04237704809117 136.35192306549473 35.63583989261503 135.46 37.15 Z M 124.36000000000004 46.77 L 122.54000000000005 50.910000000000004 C 122.05000000000005 50.75000000000001 121.54000000000005 50.57 121.05000000000005 50.42 C 126.63000000000005 37.95 129.97000000000006 30.91 130.85000000000005 29.470000000000002 C 131.02000000000004 29.28 130.92000000000004 29.19 131.27000000000004 29.090000000000003 C 131.41519331182414 29.10066913490191 131.52578349731542 29.224530142652128 131.52000000000004 29.370000000000005 C 131.51 30 129.21 35.64 124.37 46.75 Z M 117.62000000000005 49.470000000000006 L 116.10000000000005 49.10000000000001 C 120.63000000000005 35.61000000000001 123.28000000000006 28.28000000000001 124.00000000000006 26.820000000000007 C 124.15000000000006 26.630000000000006 124.00000000000006 26.540000000000006 124.39000000000006 26.42000000000001 C 124.50003891098923 26.423141859601817 124.59617291970535 26.495242366138907 124.63000000000005 26.60000000000001 L 124.63000000000005 26.72000000000001 C 124.65 27.54 122.33 35.24 117.63 49.45 Z M 112.94000000000005 48.470000000000006 L 111.39000000000006 48.21000000000001 C 114.91000000000005 33.540000000000006 117.02000000000005 25.63000000000001 117.49000000000005 24.750000000000007 C 117.55000000000005 24.700000000000006 117.49000000000005 24.610000000000007 117.76000000000005 24.550000000000008 C 117.88262594730061 24.56042328331781 117.98407045065923 24.649694446273397 118.01000000000005 24.770000000000007 L 118.01000000000005 24.910000000000007 C 118 25.93 116.41 33.68 113 48.43 Z M 112.94000000000005 151.61 C 116.40000000000005 166.36 118.01000000000005 174.11 118.02000000000005 175.17000000000002 L 118.02000000000005 175.31 C 118.00019290484921 175.432264449543 117.89384819655533 175.5215940045099 117.77000000000005 175.52 C 117.50000000000006 175.46 117.56000000000006 175.38000000000002 117.49000000000005 175.33 L 117.39000000000006 175.09 C 117.31000000000006 174.88 117.22000000000006 174.6 117.10000000000005 174.22 C 116.87000000000005 173.45 116.54000000000005 172.32 116.10000000000005 170.81 C 115.28000000000006 167.81 114.10000000000005 163.28 112.68000000000005 157.31 C 112.26000000000005 155.62 111.82000000000005 153.79 111.36000000000006 151.87 Z M 117.94000000000005 156.46 C 117.36000000000006 154.76000000000002 116.73000000000006 152.92000000000002 116.08000000000006 150.96 L 117.60000000000005 150.59 C 122.30000000000005 164.8 124.60000000000005 172.5 124.60000000000005 173.34 C 124.60000000000005 173.34 124.60000000000005 173.57 124.34000000000005 173.64000000000001 C 123.97000000000004 173.52 124.10000000000005 173.43 123.95000000000005 173.24 C 123.80000000000004 173.05 123.75000000000004 172.8 123.60000000000005 172.44 C 123.31000000000004 171.73 122.91000000000005 170.68 122.38000000000005 169.26 Q 120.9 165 118 156.42 Z M 122.94000000000005 153.92000000000002 Q 122.02000000000005 151.92000000000002 121.01000000000005 149.64000000000001 C 121.51000000000005 149.49 122.01000000000005 149.32000000000002 122.50000000000004 149.15 L 124.32000000000004 153.29 C 129.16000000000003 164.39999999999998 131.46000000000004 170 131.48000000000005 170.7 C 131.48009968820563 170.84529735564544 131.36519770163784 170.9646186493889 131.22000000000006 170.97 C 130.88000000000005 170.87 130.98000000000005 170.77 130.81000000000006 170.59 L 130.36000000000007 169.78 C 129.99000000000007 169.06 129.46000000000006 168 128.78000000000006 166.58 C 127.48 163.71 125.52 159.49 123 153.88 Z M 127.94000000000005 152.12 Q 126.85000000000005 150.20000000000002 125.64000000000006 148.02 C 126.12000000000006 147.83 126.64000000000006 147.65 127.09000000000006 147.45000000000002 C 130.89000000000007 154.35000000000002 133.67000000000007 159.53000000000003 135.41000000000005 162.89000000000001 C 136.2987313053555 164.3988721150972 137.04848209727209 165.9853983444207 137.65000000000006 167.63000000000002 C 137.65000000000006 167.63000000000002 137.65000000000006 167.89000000000001 137.40000000000006 167.89000000000001 C 137.15000000000006 167.89000000000001 137.15000000000006 167.72000000000003 136.98000000000008 167.56 L 136.48000000000008 166.82 C 136.0600000000001 166.17 135.48000000000008 165.2 134.70000000000007 163.9 C 133.2 161.26 131 157.35 128 152.08 Z M 132.39000000000004 148.70000000000002 L 130.46000000000004 145.92000000000002 C 130.94000000000003 145.70000000000002 131.46000000000004 145.47000000000003 131.87000000000003 145.24 Q 138.46000000000004 154.89000000000001 141.40000000000003 159.47 C 143.08000000000004 162.1 143.88000000000002 163.32 143.92000000000004 163.74 L 143.87000000000003 163.91 L 143.67000000000004 164 C 143.39000000000004 163.93 143.42000000000004 163.85 143.23000000000005 163.68 C 143.04000000000005 163.51000000000002 142.88000000000005 163.28 142.63000000000005 162.95000000000002 C 142.12000000000006 162.31000000000003 141.40000000000006 161.35000000000002 140.47000000000006 160.09 Q 137.73 156.23 132.44 148.66 Z M 137 146 C 136.35 145.23 135.66 144.41 135 143.56 L 136.34 142.76 C 143 150.88 147.14000000000001 156.10999999999999 148.73000000000002 158.29999999999998 C 149.22000000000003 159.01 149.46 159.29999999999998 149.51000000000002 159.57999999999998 L 149.43 159.76 L 149.25 159.82999999999998 C 149 159.82999999999998 149 159.70999999999998 148.81 159.55999999999997 C 148.62 159.40999999999997 148.44 159.19999999999996 148.17000000000002 158.90999999999997 C 147.63000000000002 158.33999999999997 146.87 157.48999999999998 145.87 156.34999999999997 Q 142.83 152.89 137 146 Z M 140.74 141.82 L 139.53 140.63 C 139.96 140.32999999999998 140.37 140.01999999999998 140.79 139.71 C 148.01 146.98000000000002 152.39999999999998 151.55 154.07999999999998 153.46 C 154.60999999999999 154.1 154.85 154.28 154.91 154.61 L 154.82999999999998 154.8 L 154.66 154.86 C 154.32 154.8 154.13 154.55 153.45 153.99 C 152.76999999999998 153.43 151.94 152.63 150.79 151.55 Q 147.34 148.26 140.75 141.78 Z M 144.74 138.32999999999998 L 143.67000000000002 137.45 C 144.07000000000002 137.11999999999998 144.45000000000002 136.76999999999998 144.83 136.45 C 153.37 143.64999999999998 158.22000000000003 147.92999999999998 159.3 149.07999999999998 C 159.46 149.27999999999997 159.54000000000002 149.27999999999997 159.58 149.54 L 159.48000000000002 149.73999999999998 L 159.33 149.73999999999998 C 159.03 149.73999999999998 158.79000000000002 149.46999999999997 158.10000000000002 148.98999999999998 C 157.41000000000003 148.51 156.54000000000002 147.82 155.34000000000003 146.87999999999997 C 152.92 145 149.39 142.13 144.73 138.29 Z M 159.31 141.26999999999998 C 156.66 139.55999999999997 152.8 137.01 147.78 133.63 C 148.13 133.26999999999998 148.47 132.88 148.78 132.51 C 157.7 138.67 162.6 142.23 163.69 143.2 C 163.85 143.38 163.93 143.35 164 143.64 C 164.07 143.92999999999998 163.77 143.89 163.73 143.89 C 163.34 143.79 162 143 159.3 141.23 Z M 162.87 135.86999999999998 Q 158.87 133.77999999999997 151.32 129.61999999999998 L 152.23999999999998 128.40999999999997 C 161.08999999999997 133.40999999999997 166.14999999999998 136.46999999999997 167.32 137.33999999999997 C 167.5 137.51999999999998 167.59 137.45999999999998 167.67 137.76999999999998 C 167.65950840588508 137.9112546429692 167.54164320073588 138.02038909218143 167.39999999999998 138.01999999999998 C 165.82509960260455 137.42518518117726 164.30585495224918 136.69233368684286 162.86 135.83 Z M 154.65 75.14999999999998 C 164.71 70.81999999999998 170.02 68.67999999999998 170.65 68.65999999999998 C 170.7936434386706 68.65917337871028 170.91461175518592 68.76718080417038 170.93 68.90999999999998 C 170.83 69.24999999999999 170.74 69.15999999999998 170.56 69.30999999999999 L 169.79 69.74 C 169.10999999999999 70.1 168.09 70.6 166.73 71.25 C 164.17 72.46 160.39 74.25 155.39 76.44 C 155.16 76 154.91 75.54 154.64 75.11 Z M 173.16 75 L 173.28 75 C 173.3847576338611 75.0338270802947 173.4568581403982 75.12996108901082 173.46 75.24 C 173.33 75.6 173.24 75.47999999999999 173.04000000000002 75.63 C 172.84000000000003 75.78 172.57000000000002 75.85 172.20000000000002 76.00999999999999 C 171.46 76.30999999999999 170.36 76.74 168.89000000000001 77.28999999999999 L 166.18 78.28999999999999 L 162.07 78.28999999999999 C 168.93 76.12 172.6 75.05 173.16 75 Z M 99.7 15 C 61.09309738114657 15.005865749609514 27.329535775032483 41.0059430418664 17.459999999999994 78.33000000000004 L 14.66 78.33 C 24.601425136378833 39.35358433514014 59.70571738586058 12.079186191671639 99.92999999999999 12.079186191671639 C 140.15428261413942 12.079186191671639 175.2585748636212 39.35358433514017 185.20000000000002 78.33000000000004 L 181.94 78.33 C 172.07046422496748 41.00594304186637 138.3069026188534 15.005865749609484 99.69999999999997 14.999999999999986 Z M 17.46 121.67 C 27.30562316373411 159.01548986227237 61.07847868693743 185.03855862724987 99.69999999999999 185.03855862724987 C 138.32152131306256 185.03855862724987 172.09437683626587 159.01548986227237 181.93999999999997 121.67 L 185.2 121.67 C 175.25857486362113 160.64641566485986 140.1542826141394 187.92081380832838 99.92999999999998 187.92081380832838 C 59.70571738586057 187.92081380832838 24.601425136378793 160.64641566485983 14.659999999999968 121.66999999999996 Z M 158.63 117.09 C 163.0968532668033 106.13794508575837 163.0968532668033 93.87205491424162 158.63 82.91999999999999 L 186.22 82.92 L 186.22 82.99 L 174.61 97.17 L 172.22000000000003 100.08 L 174.61 102.98 L 186.17000000000002 117.09 Z M 184.37 107.66 C 184.6 105.14 184.73000000000002 102.59 184.73000000000002 100 C 184.73000000000002 97.41 184.60000000000002 95 184.38000000000002 92.48 L 187.19000000000003 89.05 C 187.65646013065026 92.69821186947 187.89359251132842 96.37209382363866 187.90000000000003 100.05000000000001 C 187.88817377835426 103.7579517388674 187.64771750694845 107.461646252604 187.18000000000004 111.14 Z M 9 100 C 9.000331171829135 95.27858071621134 9.368108256025943 90.56434718241569 10.09999999999998 85.90000000000003 L 11.69 87.83000000000001 C 11.126380758764432 91.86245772777951 10.835719499827166 95.92837441889057 10.82000000000001 100.00000000000001 C 10.825287249722688 104.11518288738748 11.11598475822501 108.22504421448943 11.68999999999999 112.30000000000003 L 10.1 114.24 C 9.363355036541735 109.52918753078774 8.995571180302662 104.76805833729313 8.999999999999977 100.00000000000003 Z M 100 190.95 C 58.139351337820344 190.89104641000694 21.706306013025284 162.3122264360282 11.680000000000007 121.67000000000002 L 13.560000000000006 121.66999999999999 C 23.50617938619716 161.3060952024063 59.13502077234553 189.09896959570614 100 189.09896959570614 C 140.8649792276545 189.09896959570614 176.49382061380285 161.3060952024063 186.44 121.66999999999997 L 188.32 121.66999999999999 C 178.31011544265112 162.35946853049066 141.8326228837632 190.97112775786593 99.92999999999999 191 Z M 188.24 112.29999999999998 C 189.38656217531573 104.1836256756463 189.38656217531573 95.94637432435367 188.24 87.82999999999998 L 189.83 85.89999999999998 C 191.31000741647222 95.28869854864936 191.31000741647222 104.85130145135062 189.82999999999998 114.24000000000001 Z M 149 100 C 149 122.53999999999999 127 140.88 99.9 140.88 C 72.80000000000001 140.88 50.83 122.54 50.83 100 C 50.83 77.46 72.83 59.12 99.93 59.12 C 127.03000000000002 59.12 149 77.46 149 100 Z" stroke-linecap="round" />
</g>
</g>
</g>
</g>
</g>
<g transform="matrix(1.9211538461538462 0 0 1.9211538461538462 641.2257001494588 704.4834539351511)" id="text-logo"  >
<g style=""  paint-order="stroke"   >
		<g transform="matrix(1 0 0 1 0 0)" id="text-logo-path-0"  >
<path style="stroke: none; stroke-width: 0; stroke-dasharray: none; stroke-linecap: butt; stroke-dashoffset: 0; stroke-linejoin: miter; stroke-miterlimit: 4; fill: rgb(170,107,107); fill-rule: nonzero; opacity: 1;"  paint-order="stroke"  transform=" translate(-146.535, 15.409999999999998)" d="M 15.04 -31.28 C 7.91 -31.28 3.04 -27.55 3.04 -21.71 C 3.04 -17.07 5.75 -14.12 11.18 -12.93 L 17.53 -11.55 C 19.55 -11.13 20.56 -10.4 20.56 -9.34 C 20.56 -7.73 19 -6.9 15.87 -6.9 C 13.34 -6.9 10.76 -8.37 9.89 -10.72 L 2.3 -8.05 C 3.59 -2.53 8.83 0.46 15.46 0.46 C 19.73 0.46 23.78 -0.92 26.17 -3.91 C 27.37 -5.38 27.97 -7.22 27.97 -9.38 C 27.97 -14.03 25.21 -16.97 19.64 -18.22 L 13.34 -19.64 C 11.73 -20.01 10.63 -20.75 10.63 -21.71 C 10.63 -23.32 12.51 -23.92 14.95 -23.92 C 17.94 -23.92 19.87 -23.18 20.29 -20.65 L 27.37 -23.41 C 25.85 -28.57 21.11 -31.28 15.04 -31.28 Z M 41.77 0 L 63.85 0 L 63.85 -6.44 L 49.13 -6.44 L 49.13 -12.19 L 61.09 -12.19 L 61.09 -18.63 L 49.13 -18.63 L 49.13 -24.38 L 63.85 -24.38 L 63.85 -30.82 L 41.77 -30.82 Z M 107.13 -6.76 L 100.56 -10.58 C 99.08 -8.37 96.6 -6.9 93.66 -6.9 C 88.96 -6.9 85.24 -10.67 85.24 -15.41 C 85.24 -20.15 89.01 -23.92 93.66 -23.92 C 96.6 -23.92 99.31 -22.36 100.83 -19.92 L 107.32 -23.69 C 104.42 -28.34 99.36 -31.33 93.66 -31.33 C 87.77 -31.33 82.57 -28.24 79.76 -23.37 C 78.34 -20.93 77.65 -18.26 77.65 -15.41 C 77.65 -9.71 80.68 -4.55 85.61 -1.66 C 88.04 -0.23 90.76 0.51 93.66 0.51 C 99.22 0.51 104.19 -2.35 107.13 -6.76 Z M 128.48 -13.43 L 128.48 -30.82 L 121.12 -30.82 L 121.12 -13.43 C 121.12 -8.33 123.79 -3.91 128.02 -1.43 C 130.13 -0.18 132.43 0.46 134.96 0.46 C 139.93 0.46 144.39 -2.21 146.88 -6.49 C 148.12 -8.6 148.72 -10.9 148.72 -13.43 L 148.72 -30.82 L 141.36 -30.82 L 141.36 -13.43 C 141.36 -9.61 138.64 -6.72 134.96 -6.72 C 131.24 -6.72 128.48 -9.61 128.48 -13.43 Z M 188.23 0 L 181.29 -11.13 C 184.97 -12.65 187.54 -16.28 187.54 -20.61 C 187.54 -26.17 183.22 -30.59 177.7 -30.82 L 162.52 -30.82 L 162.52 0 L 169.88 0 L 169.88 -10.35 L 172.82 -10.35 L 179.31 0 Z M 176.41 -16.79 L 169.88 -16.79 L 169.88 -24.38 L 176.41 -24.38 C 178.66 -24.38 180.18 -22.82 180.18 -20.56 C 180.18 -18.31 178.66 -16.79 176.41 -16.79 Z M 209.39 0 L 209.39 -30.82 L 202.03 -30.82 L 202.03 0 Z M 238.83 0 L 238.83 -24.43 L 247.11 -24.43 L 247.11 -30.87 L 223.19 -30.87 L 223.19 -24.43 L 231.47 -24.43 L 231.47 0 Z M 260.91 -30.82 L 272.09 -12.1 L 272.09 0 L 279.45 0 L 279.45 -11.87 L 290.77 -30.82 L 283.18 -30.82 L 275.86 -18.49 L 268.5 -30.82 Z" stroke-linecap="round" />
</g>
</g>
</g>
<g transform="matrix(1.9211538461538462 0 0 1.9211538461538462 637.3809237200727 789.1116712202111)" id="tagline-1ba35031-cf00-4e63-b764-5a0e830cfe2c-logo"  >
<g style=""  paint-order="stroke"   >
		<g transform="matrix(1 0 0 1 0 0)" id="tagline-1ba35031-cf00-4e63-b764-5a0e830cfe2c-logo-path-0"  >
<path style="stroke: none; stroke-width: 0; stroke-dasharray: none; stroke-linecap: butt; stroke-dashoffset: 0; stroke-linejoin: miter; stroke-miterlimit: 4; fill: rgb(170,107,107); fill-rule: nonzero; opacity: 1;"  paint-order="stroke"  transform=" translate(-77.185, 10.72)" d="M 4.16 0 L 4.16 -8.93 L 10.34 -8.93 L 15.94 0 L 18.94 0 L 13.31 -9.02 C 16.42 -9.54 18.72 -12.06 18.72 -15.23 C 18.72 -18.72 15.81 -21.44 12.16 -21.44 L 1.6 -21.44 L 1.6 0 Z M 12.16 -11.14 L 4.16 -11.17 L 4.16 -19.2 L 12 -19.2 C 14.59 -19.2 16.32 -17.63 16.32 -15.23 C 16.32 -12.8 14.69 -11.2 12.16 -11.14 Z M 36.1 0 L 38.3 -5.28 L 49.06 -5.28 L 51.26 0 L 54.02 0 L 45.06 -21.44 L 42.3 -21.44 L 33.34 0 Z M 39.23 -7.52 L 43.68 -18.14 L 48.13 -7.52 Z M 76.8 0 C 80.74 0 84.19 -2.08 86.11 -5.38 C 87.07 -7.01 87.55 -8.8 87.55 -10.72 C 87.55 -14.56 85.54 -18.05 82.24 -20 C 80.61 -20.96 78.78 -21.44 76.8 -21.44 L 68.42 -21.44 L 68.42 0 Z M 76.8 -2.27 L 70.98 -2.27 L 70.98 -19.2 L 76.8 -19.2 C 79.74 -19.2 82.43 -17.57 83.9 -14.98 C 84.64 -13.66 84.99 -12.26 84.99 -10.72 C 84.99 -6.02 81.38 -2.27 76.8 -2.27 Z M 103.1 0 L 105.31 -5.28 L 116.06 -5.28 L 118.27 0 L 121.02 0 L 112.06 -21.44 L 109.31 -21.44 L 100.35 0 Z M 106.24 -7.52 L 110.69 -18.14 L 115.14 -7.52 Z M 137.98 0 L 137.98 -8.93 L 144.16 -8.93 L 149.76 0 L 152.77 0 L 147.14 -9.02 C 150.24 -9.54 152.54 -12.06 152.54 -15.23 C 152.54 -18.72 149.63 -21.44 145.98 -21.44 L 135.42 -21.44 L 135.42 0 Z M 145.98 -11.14 L 137.98 -11.17 L 137.98 -19.2 L 145.82 -19.2 C 148.42 -19.2 150.14 -17.63 150.14 -15.23 C 150.14 -12.8 148.51 -11.2 145.98 -11.14 Z" stroke-linecap="round" />
</g>
</g>
</g>
<g transform="matrix(1.9211538461538462 0 0 1.9211538461538462 640.0196918269231 406.7246911221837)" id="tagline-9fbb5842-c110-4ee3-8ac4-ea841d94f069-logo"  >
<g style=""  paint-order="stroke"   >
		<g transform="matrix(1 0 0 1 0 0)" id="tagline-9fbb5842-c110-4ee3-8ac4-ea841d94f069-logo-path-0"  >
<path style="stroke: none; stroke-width: 0; stroke-dasharray: none; stroke-linecap: butt; stroke-dashoffset: 0; stroke-linejoin: miter; stroke-miterlimit: 4; fill: rgb(255,252,240); fill-rule: nonzero; opacity: 1;"  paint-order="stroke"  transform=" translate(-13.489999999999998, 13.735)" d="M 13.41 -27.88 C 7.05 -27.88 2.71 -24.56 2.71 -19.35 C 2.71 -15.21 5.13 -12.59 9.96 -11.52 L 15.62 -10.29 C 17.43 -9.92 18.33 -9.27 18.33 -8.32 C 18.33 -6.89 16.93 -6.15 14.15 -6.15 C 11.89 -6.15 9.59 -7.46 8.81 -9.55 L 2.05 -7.18 C 3.2 -2.25 7.87 0.41 13.78 0.41 C 17.59 0.41 21.2 -0.82 23.33 -3.49 C 24.39 -4.8 24.93 -6.44 24.93 -8.36 C 24.93 -12.51 22.47 -15.13 17.51 -16.24 L 11.89 -17.51 C 10.46 -17.84 9.47 -18.49 9.47 -19.35 C 9.47 -20.79 11.15 -21.32 13.33 -21.32 C 15.99 -21.32 17.71 -20.66 18.08 -18.41 L 24.39 -20.87 C 23.04 -25.46 18.82 -27.88 13.41 -27.88 Z" stroke-linecap="round" />
</g>
</g>
</g>
</svg>